<svg xmlns="http://www.w3.org/2000/svg" width="341" height="340" viewBox="0 0 341 340">
  <g id="Group_74" data-name="Group 74" transform="translate(-513 -961)">
    <g id="type-2" transform="translate(515.376 963)">
      <path id="Path_94" data-name="Path 94" d="M52,115.867A3.868,3.868,0,0,1,55.867,112H384.6a3.868,3.868,0,0,1,3.867,3.867V145.84H52Z" transform="translate(-52 -112)" fill="#d1d6da" stroke="#d1d6da" stroke-width="4"/>
      <rect id="Rectangle_35" data-name="Rectangle 35" width="39" height="15" rx="7.5" transform="translate(15.624 6)" fill="#99a3ae"/>
      <rect id="Rectangle_36" data-name="Rectangle 36" width="38" height="11" rx="4" transform="translate(282.624 11)" fill="#99a3ae"/>
      <rect id="Rectangle_37" data-name="Rectangle 37" width="29" height="3" rx="1.5" transform="translate(287.624 15)" fill="#e0e3e6"/>
      <rect id="Rectangle_38" data-name="Rectangle 38" width="28" height="5" rx="2.5" transform="translate(20.624 11)" fill="#e0e3e6"/>
      <rect id="Rectangle_39" data-name="Rectangle 39" width="39" height="4" rx="2" transform="translate(15.624 24)" fill="#99a3ae"/>
      <rect id="Rectangle_40" data-name="Rectangle 40" width="20" height="5" rx="2.5" transform="translate(119.624 14)" fill="#99a3ae"/>
      <rect id="Rectangle_41" data-name="Rectangle 41" width="20" height="5" rx="2.5" transform="translate(146.624 14)" fill="#99a3ae"/>
      <rect id="Rectangle_42" data-name="Rectangle 42" width="20" height="5" rx="2.5" transform="translate(173.624 14)" fill="#99a3ae"/>
      <rect id="Rectangle_43" data-name="Rectangle 43" width="20" height="5" rx="2.5" transform="translate(200.624 14)" fill="#99a3ae"/>
      <rect id="Rectangle_44" data-name="Rectangle 44" width="19" height="5" rx="2.5" transform="translate(228.624 14)" fill="#99a3ae"/>
      <rect id="Rectangle_45" data-name="Rectangle 45" width="19" height="5" rx="2.5" transform="translate(255.624 14)" fill="#99a3ae"/>
      <rect id="Rectangle_52" data-name="Rectangle 52" width="337" height="336" rx="8" transform="translate(-0.376)" fill="none" stroke="#99a3ae" stroke-width="4"/>
    </g>
    <g id="Group_69" data-name="Group 69" transform="translate(0 -200)">
      <rect id="Rectangle_46" data-name="Rectangle 46" width="336" height="54" transform="translate(516 1444)" fill="#99a3ae"/>
      <g id="Group_70" data-name="Group 70" transform="translate(0 -6)">
        <g id="Group_67" data-name="Group 67" transform="translate(526.978 1468.425)">
          <rect id="Rectangle_49" data-name="Rectangle 49" width="85" height="6" rx="3" transform="translate(0.022 -0.425)" fill="#e6e8ea"/>
          <rect id="Rectangle_56" data-name="Rectangle 56" width="52" height="5" rx="2.5" transform="translate(0.022 12.575)" fill="#e6e8ea"/>
          <rect id="Rectangle_50" data-name="Rectangle 50" width="35" height="6" rx="3" transform="translate(89.022 -0.425)" fill="#e6e8ea"/>
          <rect id="Rectangle_57" data-name="Rectangle 57" width="34" height="5" rx="2.5" transform="translate(57.022 12.575)" fill="#e6e8ea"/>
          <rect id="Rectangle_51" data-name="Rectangle 51" width="34" height="6" rx="3" transform="translate(128.022 -0.425)" fill="#e6e8ea"/>
          <rect id="Rectangle_58" data-name="Rectangle 58" width="21" height="5" rx="2.5" transform="translate(95.022 12.575)" fill="#e6e8ea"/>
        </g>
        <g id="Group_66" data-name="Group 66" transform="translate(740.173 1470.359)">
          <rect id="Rectangle_29" data-name="Rectangle 29" width="46" height="15" rx="7.5" transform="translate(-0.173 -0.359)" fill="#e6e8ea"/>
          <rect id="Rectangle_55" data-name="Rectangle 55" width="46" height="15" rx="7.5" transform="translate(52.827 -0.359)" fill="#e6e8ea"/>
        </g>
      </g>
    </g>
  </g>
</svg>
