<svg xmlns="http://www.w3.org/2000/svg" width="591" height="72" viewBox="0 0 591 72">
  <g id="Group_56" data-name="Group 56" transform="translate(-38 -583)">
    <g id="menu-type-1" transform="translate(38 583)">
      <path id="Path_17" data-name="Path 17" d="M9.649,0h571.7A9.624,9.624,0,0,1,591,9.6V72H0V9.6A9.575,9.575,0,0,1,2.826,2.812,9.674,9.674,0,0,1,9.649,0Z" fill="#566779" opacity="0.1"/>
      <path id="Path_18" data-name="Path 18" d="M180.109,33.793H156.072v7.22h24.037Z" fill="#5081f5"/>
      <path id="Path_19" data-name="Path 19" d="M228.181,33.793H204.145v7.22h24.036Z" fill="#566779" opacity="0.3"/>
      <path id="Path_20" data-name="Path 20" d="M266.639,33.793H242.6v7.22h24.036Z" fill="#566779" opacity="0.3"/>
      <path id="Path_21" data-name="Path 21" d="M305.1,33.793H281.061v7.22H305.1Z" fill="#566779" opacity="0.3"/>
      <path id="Path_22" data-name="Path 22" d="M343.556,33.793H319.519v7.22h24.037Z" fill="#566779" opacity="0.3"/>
      <path id="Path_23" data-name="Path 23" d="M382.014,33.793H357.978v7.22h24.036Z" fill="#566779" opacity="0.3"/>
      <path id="Path_24" data-name="Path 24" d="M420.472,33.793H396.436v7.22h24.036Z" fill="#566779" opacity="0.3"/>
      <path id="Path_25" data-name="Path 25" d="M523.829,28.98H446.912V48.233h76.917Z" fill="#566779" opacity="0.3"/>
      <path id="Path_26" data-name="Path 26" d="M511.81,36.2H458.93v4.813h52.88Z" fill="#fff"/>
      <path id="Path_27" data-name="Path 27" d="M553.673,41.065a5.693,5.693,0,1,0-8.047,0A5.7,5.7,0,0,0,553.673,41.065Z" fill="#fff"/>
      <path id="Path_28" data-name="Path 28" d="M553.248,40.64a5.092,5.092,0,1,0-7.2,0A5.1,5.1,0,0,0,553.248,40.64Z" fill="rgba(0,0,0,0)" stroke="#566779" stroke-width="0.5"/>
      <path id="Path_29" data-name="Path 29" d="M552.333,39.723l5.364,5.371" fill="rgba(0,0,0,0)" stroke="#566779" stroke-width="0.5"/>
      <path id="Path_30" data-name="Path 30" d="M95,14.54H46.925a15.643,15.643,0,0,0,0,31.287H95A15.643,15.643,0,0,0,95,14.54Z" transform="translate(-0.302 0.46)" fill="#566779" opacity="0.5"/>
      <path id="Path_31" data-name="Path 31" d="M110.622,50.64H33.705v7.22h76.917Z" fill="#566779" opacity="0.3"/>
      <path id="Path_32" data-name="Path 32" d="M53.794,30.523H48.809v-9H50.3v7.74h3.49Zm4.627.151a4.059,4.059,0,0,1-3.12-1.262,4.642,4.642,0,0,1-1.168-3.283,4.911,4.911,0,0,1,1.193-3.465,4.19,4.19,0,0,1,3.239-1.293,3.949,3.949,0,0,1,3.051,1.256,4.643,4.643,0,0,1,1.161,3.283,4.926,4.926,0,0,1-1.186,3.484A4.114,4.114,0,0,1,58.42,30.673Zm.069-7.991a2.514,2.514,0,0,0-2.015.923,3.661,3.661,0,0,0-.772,2.43,3.686,3.686,0,0,0,.753,2.417,2.429,2.429,0,0,0,1.971.916,2.545,2.545,0,0,0,2.04-.873,3.64,3.64,0,0,0,.747-2.442,3.805,3.805,0,0,0-.728-2.492A2.442,2.442,0,0,0,58.489,22.682Zm12.963,7.226a6.444,6.444,0,0,1-3.133.766,4.36,4.36,0,0,1-3.233-1.243,4.459,4.459,0,0,1-1.237-3.289,4.617,4.617,0,0,1,1.35-3.428,4.684,4.684,0,0,1,3.44-1.344,6.4,6.4,0,0,1,2.524.44v1.538a4.343,4.343,0,0,0-2.467-.691,3.152,3.152,0,0,0-2.36.948,3.384,3.384,0,0,0-.916,2.455,3.548,3.548,0,0,0,.791,2.442,2.734,2.734,0,0,0,2.147.885,3.4,3.4,0,0,0,1.607-.358V26.888h-1.9V25.633h3.384Zm5.65.766a4.059,4.059,0,0,1-3.12-1.262,4.642,4.642,0,0,1-1.168-3.283,4.91,4.91,0,0,1,1.193-3.465,4.191,4.191,0,0,1,3.24-1.293A3.951,3.951,0,0,1,80.3,22.626a4.647,4.647,0,0,1,1.161,3.283,4.923,4.923,0,0,1-1.186,3.484A4.115,4.115,0,0,1,77.1,30.673Zm.07-7.991a2.514,2.514,0,0,0-2.016.923,3.661,3.661,0,0,0-.772,2.43,3.686,3.686,0,0,0,.753,2.417,2.428,2.428,0,0,0,1.971.916,2.544,2.544,0,0,0,2.041-.873,3.642,3.642,0,0,0,.748-2.442,3.8,3.8,0,0,0-.729-2.492A2.44,2.44,0,0,0,77.172,22.682Z" transform="translate(5.191 4.63)" fill="#fff"/>
    </g>
  </g>
</svg>
