<svg xmlns="http://www.w3.org/2000/svg" width="589.782" height="72.2" viewBox="0 0 589.782 72.2">
  <g id="Group_55" data-name="Group 55" transform="translate(-48 -698)">
    <g id="menu-type-2" transform="translate(47.891 697.9)">
      <path id="Path_35" data-name="Path 35" d="M9.738.1H580.262a9.627,9.627,0,0,1,9.629,9.627V72.3H.109V9.727A9.628,9.628,0,0,1,9.738.1Z" fill="#566779" opacity="0.1"/>
      <path id="Path_36" data-name="Path 36" d="M180.435,33.793H156.363v7.22h24.072Z" fill="#5081f5"/>
      <path id="Path_37" data-name="Path 37" d="M228.581,33.793H204.508v7.22h24.073Z" fill="#566779" opacity="0.3"/>
      <path id="Path_38" data-name="Path 38" d="M267.1,33.793H243.024v7.22H267.1Z" fill="#566779" opacity="0.3"/>
      <path id="Path_39" data-name="Path 39" d="M305.614,33.793H281.541v7.22h24.073Z" fill="#566779" opacity="0.3"/>
      <path id="Path_40" data-name="Path 40" d="M344.13,33.793H320.057v7.22H344.13Z" fill="#566779" opacity="0.3"/>
      <path id="Path_41" data-name="Path 41" d="M382.646,33.793H358.573v7.22h24.073Z" fill="#566779" opacity="0.3"/>
      <path id="Path_42" data-name="Path 42" d="M421.163,33.793H397.09v7.22h24.073Z" fill="#566779" opacity="0.3"/>
      <path id="Path_43" data-name="Path 43" d="M524.675,28.98H447.643V48.233h77.032Z" fill="#566779" opacity="0.3"/>
      <path id="Path_44" data-name="Path 44" d="M512.639,36.2h-52.96v4.813h52.96Z" fill="#fff"/>
      <path id="Path_45" data-name="Path 45" d="M554.564,41.065a5.7,5.7,0,1,0-8.058,0A5.694,5.694,0,0,0,554.564,41.065Z" fill="#fff"/>
      <path id="Path_46" data-name="Path 46" d="M554.139,40.64a5.1,5.1,0,1,0-7.207,0A5.094,5.094,0,0,0,554.139,40.64Z" fill="none" stroke="#566779" stroke-width="0.5"/>
      <path id="Path_47" data-name="Path 47" d="M553.223,39.723l5.372,5.371" fill="none" stroke="#566779" stroke-width="0.5"/>
      <path id="Path_48" data-name="Path 48" d="M95.2,14.54H47.051a15.643,15.643,0,1,0,0,31.287H95.2a15.643,15.643,0,1,0,0-31.287Z" transform="translate(-0.295 -0.44)" fill="#566779" opacity="0.5"/>
      <path id="Path_49" data-name="Path 49" d="M110.844,50.64H33.811v7.22h77.033Z" fill="#566779" opacity="0.3"/>
      <path id="Path_50" data-name="Path 50" d="M53.921,30.523H48.936v-9h1.494v7.74h3.49Zm4.627.151a4.059,4.059,0,0,1-3.12-1.262,4.642,4.642,0,0,1-1.168-3.283,4.91,4.91,0,0,1,1.193-3.465,4.19,4.19,0,0,1,3.239-1.293,3.949,3.949,0,0,1,3.051,1.256A4.643,4.643,0,0,1,62.9,25.909a4.926,4.926,0,0,1-1.186,3.484A4.114,4.114,0,0,1,58.548,30.674Zm.069-7.991A2.514,2.514,0,0,0,56.6,23.6a3.661,3.661,0,0,0-.772,2.43,3.686,3.686,0,0,0,.753,2.417,2.429,2.429,0,0,0,1.971.916,2.545,2.545,0,0,0,2.04-.873,3.64,3.64,0,0,0,.747-2.442,3.8,3.8,0,0,0-.728-2.492A2.442,2.442,0,0,0,58.617,22.682ZM71.58,29.908a6.443,6.443,0,0,1-3.132.766,4.36,4.36,0,0,1-3.233-1.243,4.459,4.459,0,0,1-1.237-3.289,4.617,4.617,0,0,1,1.35-3.428,4.684,4.684,0,0,1,3.44-1.344,6.4,6.4,0,0,1,2.524.44v1.538a4.343,4.343,0,0,0-2.467-.691,3.151,3.151,0,0,0-2.36.948,3.384,3.384,0,0,0-.917,2.455,3.549,3.549,0,0,0,.791,2.442,2.734,2.734,0,0,0,2.147.885,3.4,3.4,0,0,0,1.607-.358V26.888H68.2V25.633H71.58Zm5.649.766a4.058,4.058,0,0,1-3.119-1.262,4.642,4.642,0,0,1-1.168-3.283,4.911,4.911,0,0,1,1.193-3.465,4.191,4.191,0,0,1,3.239-1.293,3.948,3.948,0,0,1,3.051,1.256,4.639,4.639,0,0,1,1.161,3.283A4.923,4.923,0,0,1,80.4,29.393,4.112,4.112,0,0,1,77.229,30.674Zm.07-7.991a2.514,2.514,0,0,0-2.015.923,3.662,3.662,0,0,0-.772,2.43,3.685,3.685,0,0,0,.753,2.417,2.429,2.429,0,0,0,1.972.916,2.549,2.549,0,0,0,2.041-.873,3.642,3.642,0,0,0,.746-2.442,3.808,3.808,0,0,0-.727-2.492A2.444,2.444,0,0,0,77.3,22.682Z" transform="translate(5.173 3.73)" fill="#fff"/>
      <path id="Path_51" data-name="Path 51" d="M185.25,48.233h-33.7V50.64h33.7Z" fill="#5081f5" opacity="0.9"/>
    </g>
  </g>
</svg>
