<svg xmlns="http://www.w3.org/2000/svg" width="590" height="72.2" viewBox="0 0 590 72.2">
  <g id="Group_54" data-name="Group 54" transform="translate(-47.782 -807)">
    <g id="Group_53" data-name="Group 53">
      <path id="Path_54" data-name="Path 54" d="M9.633.1H580.367A9.629,9.629,0,0,1,590,9.727V72.3H0V9.727A9.63,9.63,0,0,1,9.633.1Z" transform="translate(47.782 806.9)" fill="#566779" opacity="0.1"/>
    </g>
    <path id="Path_55" data-name="Path 55" d="M189.956,28.98H146.625V45.827h43.331Z" transform="translate(47.782 806.9)" fill="#5081f5"/>
    <path id="Path_56" data-name="Path 56" d="M180.326,33.793H156.254v7.22h24.072Z" transform="translate(47.782 806.9)" fill="#fff"/>
    <path id="Path_57" data-name="Path 57" d="M228.472,33.793H204.4v7.22h24.073Z" transform="translate(47.782 806.9)" fill="#566779" opacity="0.3"/>
    <path id="Path_58" data-name="Path 58" d="M266.988,33.793H242.916v7.22h24.072Z" transform="translate(47.782 806.9)" fill="#566779" opacity="0.3"/>
    <path id="Path_59" data-name="Path 59" d="M305.505,33.793H281.432v7.22h24.073Z" transform="translate(47.782 806.9)" fill="#566779" opacity="0.3"/>
    <path id="Path_60" data-name="Path 60" d="M344.021,33.793H319.948v7.22h24.073Z" transform="translate(47.782 806.9)" fill="#566779" opacity="0.3"/>
    <path id="Path_61" data-name="Path 61" d="M382.537,33.793H358.465v7.22h24.072Z" transform="translate(47.782 806.9)" fill="#566779" opacity="0.3"/>
    <path id="Path_62" data-name="Path 62" d="M421.054,33.793H396.981v7.22h24.073Z" transform="translate(47.782 806.9)" fill="#566779" opacity="0.3"/>
    <path id="Path_63" data-name="Path 63" d="M524.566,28.98H447.534V48.233h77.032Z" transform="translate(47.782 806.9)" fill="#566779" opacity="0.3"/>
    <path id="Path_64" data-name="Path 64" d="M512.53,36.2H459.57v4.813h52.96Z" transform="translate(47.782 806.9)" fill="#fff"/>
    <path id="Path_65" data-name="Path 65" d="M554.456,41.065a5.7,5.7,0,1,0-8.059,0A5.7,5.7,0,0,0,554.456,41.065Z" transform="translate(47.782 806.9)" fill="#fff"/>
    <path id="Path_66" data-name="Path 66" d="M554.03,40.64a5.1,5.1,0,1,0-7.207,0A5.094,5.094,0,0,0,554.03,40.64Z" transform="translate(47.782 806.9)" fill="none" stroke="#566779" stroke-width="0.5"/>
    <path id="Path_67" data-name="Path 67" d="M553.114,39.723l5.372,5.371" transform="translate(47.782 806.9)" fill="none" stroke="#566779" stroke-width="0.5"/>
    <path id="Path_68" data-name="Path 68" d="M95.087,14.54H46.942a15.643,15.643,0,1,0,0,31.287H95.087a15.643,15.643,0,1,0,0-31.287Z" transform="translate(47.705 806.46)" fill="#566779" opacity="0.5"/>
    <path id="Path_69" data-name="Path 69" d="M110.735,50.64H33.7v7.22h77.033Z" transform="translate(47.782 806.9)" fill="#566779" opacity="0.3"/>
    <path id="Path_70" data-name="Path 70" d="M53.812,30.523H48.827v-9h1.494v7.741h3.49Zm4.627.151a4.059,4.059,0,0,1-3.12-1.262,4.642,4.642,0,0,1-1.168-3.283,4.91,4.91,0,0,1,1.193-3.465,4.19,4.19,0,0,1,3.239-1.293,3.949,3.949,0,0,1,3.051,1.256A4.644,4.644,0,0,1,62.8,25.909a4.926,4.926,0,0,1-1.187,3.484A4.114,4.114,0,0,1,58.439,30.674Zm.069-7.991a2.514,2.514,0,0,0-2.015.923,3.661,3.661,0,0,0-.772,2.43,3.686,3.686,0,0,0,.753,2.417,2.429,2.429,0,0,0,1.971.917,2.545,2.545,0,0,0,2.04-.873,3.64,3.64,0,0,0,.747-2.442,3.8,3.8,0,0,0-.728-2.492A2.442,2.442,0,0,0,58.508,22.682Zm12.964,7.226a6.443,6.443,0,0,1-3.132.766,4.36,4.36,0,0,1-3.233-1.243,4.459,4.459,0,0,1-1.237-3.29,4.617,4.617,0,0,1,1.35-3.428,4.684,4.684,0,0,1,3.44-1.344,6.4,6.4,0,0,1,2.524.44v1.538a4.343,4.343,0,0,0-2.467-.691,3.151,3.151,0,0,0-2.36.948,3.384,3.384,0,0,0-.917,2.455,3.549,3.549,0,0,0,.791,2.442,2.734,2.734,0,0,0,2.147.885,3.4,3.4,0,0,0,1.607-.358V26.888h-1.9V25.633h3.384Zm5.65.766A4.058,4.058,0,0,1,74,29.412a4.642,4.642,0,0,1-1.168-3.283,4.911,4.911,0,0,1,1.193-3.465,4.191,4.191,0,0,1,3.24-1.293,3.948,3.948,0,0,1,3.051,1.256,4.639,4.639,0,0,1,1.161,3.283,4.923,4.923,0,0,1-1.186,3.484A4.112,4.112,0,0,1,77.121,30.674Zm.07-7.991a2.514,2.514,0,0,0-2.015.923,3.662,3.662,0,0,0-.772,2.43,3.685,3.685,0,0,0,.753,2.417,2.429,2.429,0,0,0,1.972.917,2.549,2.549,0,0,0,2.041-.873,3.642,3.642,0,0,0,.746-2.442,3.808,3.808,0,0,0-.727-2.492A2.444,2.444,0,0,0,77.191,22.682Z" transform="translate(53.173 810.63)" fill="#fff"/>
  </g>
</svg>
