<svg xmlns="http://www.w3.org/2000/svg" width="589.782" height="72.2" viewBox="0 0 589.782 72.2">
  <g id="Group_75" data-name="Group 75" transform="translate(-688 -581)">
    <g id="Group_62" data-name="Group 62" transform="translate(640.218 -320.56)">
      <g id="menu-type-4" transform="translate(47.673 901.46)">
        <path id="Path_74" data-name="Path 74" d="M9.738.1H580.262a9.627,9.627,0,0,1,9.629,9.627V72.3H.109V9.727A9.628,9.628,0,0,1,9.738.1Z" fill="#566779" opacity="0.1"/>
        <path id="Path_76" data-name="Path 76" d="M180.435,33.793H156.363v7.22h24.072Z" transform="translate(9.746)" fill="#5081f5"/>
        <path id="Path_77" data-name="Path 77" d="M228.581,33.793H204.508v7.22h24.073Z" fill="#566779" opacity="0.3"/>
        <path id="Path_78" data-name="Path 78" d="M267.1,33.793H243.025v7.22H267.1Z" fill="#566779" opacity="0.3"/>
        <path id="Path_79" data-name="Path 79" d="M305.614,33.793H281.541v7.22h24.073Z" fill="#566779" opacity="0.3"/>
        <path id="Path_80" data-name="Path 80" d="M344.13,33.793H320.057v7.22H344.13Z" fill="#566779" opacity="0.3"/>
        <path id="Path_81" data-name="Path 81" d="M382.646,33.793H358.574v7.22h24.072Z" fill="#566779" opacity="0.3"/>
        <path id="Path_82" data-name="Path 82" d="M421.163,33.793H397.09v7.22h24.073Z" fill="#566779" opacity="0.3"/>
        <path id="Path_83" data-name="Path 83" d="M524.675,28.98H447.643V48.233h77.032Z" fill="#566779" opacity="0.3"/>
        <path id="Path_84" data-name="Path 84" d="M512.639,36.2h-52.96v4.813h52.96Z" fill="#fff"/>
        <path id="Path_85" data-name="Path 85" d="M554.565,41.065a5.7,5.7,0,1,0-8.059,0A5.7,5.7,0,0,0,554.565,41.065Z" fill="#fff"/>
        <path id="Path_86" data-name="Path 86" d="M554.139,40.64a5.1,5.1,0,1,0-7.207,0A5.094,5.094,0,0,0,554.139,40.64Z" fill="none" stroke="#566779" stroke-width="0.5"/>
        <path id="Path_87" data-name="Path 87" d="M553.223,39.723l5.372,5.371" fill="none" stroke="#566779" stroke-width="0.5"/>
        <path id="Path_88" data-name="Path 88" d="M95.2,16.947H47.051a15.643,15.643,0,1,0,0,31.287H95.2a15.643,15.643,0,1,0,0-31.287Z" transform="translate(-0.076 -0.407)" fill="#566779" opacity="0.5"/>
        <path id="Path_89" data-name="Path 89" d="M110.844,53.047H33.811v7.22h77.033Z" fill="#566779" opacity="0.3"/>
        <path id="Path_90" data-name="Path 90" d="M53.921,32.93H48.937v-9h1.494v7.74h3.49Zm4.627.151a4.059,4.059,0,0,1-3.12-1.262,4.643,4.643,0,0,1-1.168-3.283,4.91,4.91,0,0,1,1.193-3.465,4.19,4.19,0,0,1,3.239-1.293,3.949,3.949,0,0,1,3.051,1.255A4.644,4.644,0,0,1,62.9,28.316,4.925,4.925,0,0,1,61.718,31.8,4.114,4.114,0,0,1,58.548,33.08Zm.069-7.992a2.513,2.513,0,0,0-2.015.923,3.66,3.66,0,0,0-.772,2.429,3.686,3.686,0,0,0,.753,2.417,2.429,2.429,0,0,0,1.971.917,2.545,2.545,0,0,0,2.04-.873,3.64,3.64,0,0,0,.747-2.442,3.8,3.8,0,0,0-.728-2.492A2.442,2.442,0,0,0,58.617,25.089ZM71.58,32.315a6.441,6.441,0,0,1-3.132.766,4.36,4.36,0,0,1-3.233-1.243,4.459,4.459,0,0,1-1.237-3.29,4.618,4.618,0,0,1,1.35-3.428,4.685,4.685,0,0,1,3.44-1.343,6.4,6.4,0,0,1,2.524.439v1.538a4.345,4.345,0,0,0-2.467-.691,3.151,3.151,0,0,0-2.36.948,3.383,3.383,0,0,0-.917,2.455,3.549,3.549,0,0,0,.791,2.442,2.734,2.734,0,0,0,2.147.885,3.4,3.4,0,0,0,1.607-.358V29.295H68.2V28.04H71.58Zm5.649.766a4.058,4.058,0,0,1-3.119-1.262,4.643,4.643,0,0,1-1.168-3.283,4.911,4.911,0,0,1,1.193-3.465,4.191,4.191,0,0,1,3.24-1.293,3.948,3.948,0,0,1,3.051,1.255,4.639,4.639,0,0,1,1.161,3.283A4.923,4.923,0,0,1,80.4,31.8,4.112,4.112,0,0,1,77.23,33.08Zm.07-7.992a2.514,2.514,0,0,0-2.015.923,3.661,3.661,0,0,0-.772,2.429,3.685,3.685,0,0,0,.753,2.417,2.429,2.429,0,0,0,1.972.917,2.548,2.548,0,0,0,2.041-.873,3.641,3.641,0,0,0,.746-2.442,3.809,3.809,0,0,0-.727-2.492A2.444,2.444,0,0,0,77.3,25.089Z" transform="translate(5.391 3.763)" fill="#fff"/>
      </g>
    </g>
    <path id="Path_92" data-name="Path 92" d="M175.032,69.894h-28.3V72.3h28.3Z" transform="translate(705.112 547.206)" fill="#396ce3"/>
  </g>
</svg>
