<?xml version="1.0" encoding="UTF-8" standalone="no"?>
<!-- Created with Inkscape (http://www.inkscape.org/) -->

<svg
   xmlns:dc="http://purl.org/dc/elements/1.1/"
   xmlns:cc="http://creativecommons.org/ns#"
   xmlns:rdf="http://www.w3.org/1999/02/22-rdf-syntax-ns#"
   xmlns:svg="http://www.w3.org/2000/svg"
   xmlns="http://www.w3.org/2000/svg"
   xmlns:sodipodi="http://sodipodi.sourceforge.net/DTD/sodipodi-0.dtd"
   xmlns:inkscape="http://www.inkscape.org/namespaces/inkscape"
   width="20"
   height="20"
   version="1.1"
   viewBox="0 0 2.4055549 2.4072457"
   id="svg57"
   sodipodi:docname="pi-web-solution-4 (1).svg"
   inkscape:version="0.92.4 (5da689c313, 2019-01-14)"
   style="enable-background:new">
  <sodipodi:namedview
     pagecolor="#ffffff"
     bordercolor="#666666"
     borderopacity="1"
     objecttolerance="10"
     gridtolerance="10"
     guidetolerance="10"
     inkscape:pageopacity="0"
     inkscape:pageshadow="2"
     inkscape:window-width="1366"
     inkscape:window-height="741"
     id="namedview59"
     showgrid="false"
     inkscape:zoom="2.0090682"
     inkscape:cx="-32.407114"
     inkscape:cy="-9.7418865"
     inkscape:window-x="-9"
     inkscape:window-y="-9"
     inkscape:window-maximized="1"
     inkscape:current-layer="svg57"
     fit-margin-top="0"
     fit-margin-left="0"
     fit-margin-right="0"
     fit-margin-bottom="0" />
  <defs
     id="defs17">
    <filter
       id="filter916"
       style="color-interpolation-filters:sRGB">
      <feBlend
         in2="BackgroundImage"
         mode="overlay"
         result="fbSourceGraphic"
         id="feBlend2" />
      <feColorMatrix
         in="fbSourceGraphic"
         result="fbSourceGraphicAlpha"
         values="0 0 0 -1 0 0 0 0 -1 0 0 0 0 -1 0 0 0 0 1 0"
         id="feColorMatrix4" />
      <feFlood
         flood-color="rgb(0,0,0)"
         flood-opacity=".49804"
         in="fbSourceGraphic"
         result="flood"
         id="feFlood6" />
      <feComposite
         in="flood"
         in2="fbSourceGraphic"
         operator="in"
         result="composite1"
         id="feComposite8" />
      <feGaussianBlur
         in="composite1"
         result="blur"
         stdDeviation="1.3"
         id="feGaussianBlur10" />
      <feOffset
         dx="3.7"
         dy="3"
         result="offset"
         id="feOffset12" />
      <feComposite
         in="fbSourceGraphic"
         in2="offset"
         result="composite2"
         id="feComposite14" />
    </filter>
    <filter
       style="color-interpolation-filters:sRGB"
       inkscape:label="Drop Shadow"
       id="filter1032">
      <feFlood
         flood-opacity="0.498039"
         flood-color="rgb(0,0,0)"
         result="flood"
         id="feFlood1022" />
      <feComposite
         in="flood"
         in2="SourceGraphic"
         operator="in"
         result="composite1"
         id="feComposite1024" />
      <feGaussianBlur
         in="composite1"
         stdDeviation="0.8"
         result="blur"
         id="feGaussianBlur1026" />
      <feOffset
         dx="1.6"
         dy="0.5"
         result="offset"
         id="feOffset1028" />
      <feComposite
         in="SourceGraphic"
         in2="offset"
         operator="over"
         result="composite2"
         id="feComposite1030" />
    </filter>
  </defs>
  <metadata
     id="metadata19">
    <rdf:RDF>
      <cc:Work
         rdf:about="">
        <dc:format>image/svg+xml</dc:format>
        <dc:type
           rdf:resource="http://purl.org/dc/dcmitype/StillImage" />
        <dc:title></dc:title>
      </cc:Work>
    </rdf:RDF>
  </metadata>
  <g
     style="fill:#ffffff"
     id="g23"
     transform="matrix(0.024939,0,0,0.024939,15.197989,-3.4644043)">
    <title
       id="title21">Layer 1</title>
  </g>
  <g
     transform="matrix(0.05632819,0,0,0.05632819,-0.9685449,-12.538982)"
     id="g55"
     style="filter:url(#filter1032);enable-background:new">
    <path
       transform="matrix(0.26458,0,0,0.26458,0,191.17)"
       d="m 199.57,130.34 c -13.052,0.18644 -20.495,30.334 -42.256,32.973 -19.476,2.3612 -61.191,-42.557 -76.139,-27.609 -17.03,17.03 24.109,50.564 23.416,72.875 -0.75173,24.204 -41.89,37.223 -23.416,55.697 19.025,19.025 44.384,-27.858 69.289,-29.223 21.572,-1.1817 42.804,45.702 59.283,29.223 16.142,-16.142 -24.341,-36.842 -22.877,-57.957 1.7566,-25.328 42.239,-51.253 22.877,-70.615 -3.8543,-3.8543 -7.1658,-5.4063 -10.178,-5.3633 z m -24.992,42.465 -0.0957,9.1484 -13.102,-0.63671 c -1.303,9.2911 -1.9183,17.864 -1.4688,27.256 0.42896,2.6912 1.4614,4.5425 3.1484,5.6445 1.7357,1.0248 3.8135,1.3198 5.7676,0.73632 1.5762,-0.55196 2.7818,-1.6911 3.4043,-3.2207 0.21792,-0.53538 0.32811,-0.96001 0.60938,-2.3262 l 1.6406,-0.0332 c 0,0.44998 -0.51724,3.2089 -0.84375,4.4863 -0.8468,3.3132 -1.9736,5.507 -3.7207,7.25 -1.3451,1.3418 -2.9457,2.3316 -4.4356,2.7422 -0.88412,0.24366 -2.6975,0.29331 -3.5684,0.0996 -1.9416,-0.43197 -4.0645,-1.0845 -5.6367,-2.5371 -1.5722,-1.4526 -4.3514,-4.6105 -4.7051,-9.9902 -0.12659,-1.9259 -0.4246,-6.4618 -0.0937,-12.551 0.33084,-6.089 0.10378,-12.001 0.40625,-17.957 l -6.6211,0.0195 c 0.6598,0.41831 -0.45439,5.5184 -1.0391,16.193 -0.58468,10.675 -3.8658,19.14 -5.8438,22.207 -1.978,3.067 -3.186,3.841 -4.3223,4.4004 v -0.004 c -0.98771,0.45884 -2.1808,0.45268 -3.207,0.11524 -2.2007,-0.76574 -3.3991,-2.6701 -3.1133,-4.9492 0.20576,-1.6409 0.63159,-2.4465 3.1133,-5.8984 2.7539,-3.8307 3.6627,-6.3373 4.6953,-12.949 0.35431,-2.2692 0.36233,-2.3812 0.99414,-11.17 0.2034,-2.8125 0.39174,-5.6263 0.63671,-8.4356 h -1.0684 c -3.1637,0.002 -5.428,0.51952 -7.123,1.6211 -1.3584,0.8828 -3.0557,2.8302 -4.4746,5.1367 l -0.59766,0.96876 -1.6367,0.002 0.14063,-0.49414 c 0.32735,-1.143 1.039,-3.2086 1.4609,-4.2363 1.3093,-3.1884 2.7873,-5.4362 4.9492,-7.5273 1.8723,-1.811 3.1182,-2.3961 6.1348,-2.8848 0.50022,-0.0811 1.1683,-0.16967 4.3613,-0.19531 11.751,-0.0442 23.503,0.038 35.254,-0.0312 z"
       style="fill:#ee6443;fill-rule:evenodd;paint-order:markers fill stroke"
       id="path53"
       inkscape:connector-curvature="0" />
  </g>
</svg>
