<svg width="19" height="12" viewBox="0 0 19 12" fill="none" xmlns="http://www.w3.org/2000/svg">
<path d="M9.52653 8.63454C10.1638 7.90501 10.7876 7.19286 11.4114 6.47988C13.121 4.52566 14.83 2.57061 16.5384 0.614731C16.8693 0.236735 17.2669 0.0150653 17.7818 0.0729641C18.026 0.0913413 18.2599 0.177595 18.4559 0.321607C18.6519 0.465618 18.8019 0.661415 18.8884 0.886028C19.096 1.3823 19.0099 1.84301 18.6638 2.2483C18.0873 2.92158 17.499 3.58411 16.9157 4.2516C14.8291 6.63869 12.7434 9.02632 10.6585 11.4145C10.271 11.8595 9.80508 12.1184 9.21337 11.9463C8.92289 11.8612 8.66166 11.6999 8.4579 11.4798C5.74217 8.39522 3.03685 5.30233 0.341937 2.20116C-0.16452 1.61721 -0.100369 0.795045 0.481212 0.316139C1.07714 -0.171865 1.88832 -0.0883249 2.42263 0.521267C4.71575 3.14325 7.00831 5.76579 9.30031 8.38888C9.36699 8.46663 9.43874 8.54025 9.52653 8.63454Z" fill="#6E55FF"/>
</svg>
