<svg width="22" height="22" viewBox="0 0 22 22" fill="none" xmlns="http://www.w3.org/2000/svg">
<circle cx="11" cy="11" r="11" fill="white" fill-opacity="0.15"/>
<g clip-path="url(#clip0_746_954)">
<path d="M6.875 7.32009C6.88404 7.29495 6.89358 7.26982 6.90187 7.24469C6.92912 7.16067 6.97676 7.08473 7.04052 7.02366C7.10428 6.96259 7.18218 6.91829 7.26723 6.89474C7.35228 6.87118 7.44184 6.8691 7.5279 6.88868C7.61395 6.90826 7.69381 6.94888 7.76034 7.00693C7.79273 7.03482 7.82261 7.06624 7.85274 7.09665C8.87818 8.12259 9.90337 9.1487 10.9283 10.175C10.9488 10.1999 10.9669 10.2266 10.9823 10.2549L11.0175 10.2526C11.0339 10.2249 11.0525 10.1986 11.0732 10.174C12.111 9.13412 13.1494 8.0947 14.1884 7.05569C14.3725 6.87171 14.6083 6.82471 14.8212 6.92751C14.8935 6.96202 14.9571 7.0124 15.0072 7.07491C15.0574 7.13742 15.0928 7.21044 15.1109 7.28855C15.129 7.36666 15.1292 7.44784 15.1116 7.52605C15.094 7.60427 15.059 7.6775 15.0092 7.74032C14.9818 7.77342 14.9526 7.80497 14.9216 7.83482C13.8907 8.86679 12.8596 9.89843 11.8285 10.9297C11.8059 10.9526 11.7782 10.9702 11.7331 11.0051C11.7655 11.0251 11.7963 11.0474 11.8255 11.072C12.8648 12.1108 13.9036 13.1497 14.942 14.1885C15.0803 14.3267 15.1514 14.4876 15.116 14.6831C15.0773 14.8975 14.9487 15.0378 14.7423 15.1069C14.73 15.1115 14.7179 15.1168 14.7062 15.1227H14.4646C14.31 15.0702 14.1985 14.9601 14.0865 14.8475C13.0821 13.8398 12.0765 12.833 11.0694 11.827C11.0473 11.8049 11.0242 11.784 10.9941 11.7541C10.969 11.7845 10.9484 11.8101 10.9258 11.8328C9.91643 12.8436 8.90706 13.8544 7.89768 14.8651C7.79097 14.9722 7.68275 15.073 7.53662 15.1227H7.29482C7.18535 15.0835 7.07537 15.0395 7.00783 14.9408C6.95459 14.8626 6.91919 14.7721 6.876 14.6872V14.5097C6.91241 14.3481 7.01511 14.2317 7.12885 14.1181C8.14593 13.1034 9.16183 12.0877 10.1766 11.071C10.2062 11.0469 10.2378 11.0253 10.271 11.0064C10.2228 10.9682 10.1956 10.9503 10.1725 10.9277C9.15865 9.91384 8.14475 8.90013 7.13086 7.88659C7.01686 7.77299 6.91467 7.65612 6.876 7.49552L6.875 7.32009Z" fill="white"/>
</g>
<defs>
<clipPath id="clip0_746_954">
<rect width="8.25" height="8.25" fill="white" transform="translate(6.875 6.875)"/>
</clipPath>
</defs>
</svg>
