<svg width="24" height="24" viewBox="0 0 24 24" fill="none" xmlns="http://www.w3.org/2000/svg">
<path d="M11.9996 23.9993C18.6269 23.9993 23.9993 18.6269 23.9993 11.9996C23.9993 5.37243 18.6269 0 11.9996 0C5.37243 0 0 5.37243 0 11.9996C0 18.6269 5.37243 23.9993 11.9996 23.9993Z" fill="#FBBF12"/>
<path d="M19.5325 9.46872C19.4253 9.74367 19.2787 9.98266 18.9889 10.1032C18.9657 10.1131 18.948 10.154 18.941 10.1829C18.6329 11.4208 18.3284 12.6588 18.0189 13.8961C17.9484 14.1724 17.8017 14.2852 17.5113 14.2859C13.85 14.2958 10.1888 14.3047 6.52751 14.3127C6.23 14.3127 6.08337 14.1978 6.01287 13.913C5.71325 12.7089 5.41222 11.5047 5.12035 10.2985C5.11211 10.246 5.09098 10.1964 5.05887 10.1541C5.02676 10.1118 4.98467 10.0781 4.93635 10.056C4.7634 9.96536 4.62633 9.81873 4.54757 9.64007C4.46881 9.46142 4.45302 9.26132 4.50278 9.07252C4.55103 8.87846 4.66297 8.70618 4.82068 8.58323C4.97839 8.46029 5.17277 8.39377 5.37274 8.39432C5.57288 8.39767 5.76606 8.46837 5.92108 8.59501C6.07611 8.72164 6.18394 8.89681 6.22718 9.09226C6.26304 9.25021 6.25464 9.415 6.2029 9.56849C6.15115 9.72197 6.05808 9.85821 5.93391 9.96222C5.96634 9.99888 5.99242 10.0327 6.02274 10.063C6.36466 10.4071 6.70517 10.7525 7.0485 11.0951C7.7824 11.8269 8.85257 11.7663 9.48424 10.9464C10.1004 10.1469 10.7011 9.33619 11.3116 8.5332C11.3652 8.4627 11.3504 8.42322 11.3031 8.35836C11.0733 8.04253 11.0465 7.70413 11.246 7.36785C11.4455 7.03157 11.76 6.90185 12.1456 6.94486C12.4664 6.98081 12.7632 7.24659 12.8562 7.5864C12.8979 7.73042 12.9016 7.88278 12.8671 8.02867C12.8325 8.17456 12.7607 8.30902 12.6588 8.41899C12.6589 8.42929 12.6605 8.43952 12.6638 8.44931C13.306 9.30869 13.9327 10.1779 14.5961 11.0225C14.7286 11.1907 14.8948 11.3293 15.0839 11.4295C15.2731 11.5298 15.4811 11.5895 15.6946 11.6047C15.9082 11.62 16.1226 11.5905 16.324 11.5182C16.5255 11.4458 16.7097 11.3323 16.8648 11.1847C17.2786 10.7962 17.6642 10.3789 18.0633 9.97068C18.0015 9.89898 17.944 9.82365 17.8913 9.74508C17.7994 9.60458 17.7514 9.43993 17.7535 9.27208C17.7555 9.10423 17.8074 8.94078 17.9025 8.80251C17.9834 8.66659 18.1016 8.55674 18.2431 8.48601C18.3845 8.41528 18.5433 8.38664 18.7006 8.40348C19.0778 8.43168 19.3351 8.63119 19.4761 8.98369C19.4937 9.02881 19.5127 9.07322 19.5311 9.11764L19.5325 9.46872Z" fill="white"/>
<path d="M12.03 17.0643C10.244 17.0643 8.45989 17.0643 6.67768 17.0643C6.5804 17.0683 6.4832 17.0547 6.39074 17.0242C6.3201 17.0001 6.25875 16.9545 6.21527 16.8938C6.17178 16.8331 6.14835 16.7604 6.14823 16.6858C6.14188 16.3234 6.13906 15.9603 6.14823 15.598C6.15237 15.4939 6.19628 15.3954 6.27092 15.3227C6.34555 15.25 6.44521 15.2088 6.54937 15.2074C6.59308 15.2074 6.63749 15.2074 6.6812 15.2074H17.371C17.7615 15.2074 17.9096 15.3562 17.9096 15.7495V16.5434C17.9096 16.9156 17.7587 17.0665 17.3823 17.0665H12.03V17.0643Z" fill="white"/>
</svg>
