<svg width="56" height="47" viewBox="0 0 56 47" fill="none" xmlns="http://www.w3.org/2000/svg">
<path d="M17.6143 24.5348L18.6262 28.392L19.2516 28.1906L17.7823 24.4865L17.6143 24.5348ZM22.769 22.8449L22.6759 22.8751L23.1556 24.3455L23.5927 24.2025C23.8255 24.128 23.8619 23.85 23.7061 23.3686C23.6009 23.0483 23.4875 22.859 23.3681 22.7986C23.1694 22.7413 22.9565 22.7578 22.769 22.8449ZM28.0958 21.1409L29.1077 24.9981L29.7331 24.7967L28.2638 21.0925L28.0958 21.1409ZM49.7268 9.98824L47.0796 10.8443C44.2402 6.75859 40.1533 3.69239 35.425 2.10035C30.6968 0.508314 25.5788 0.475214 20.8302 2.00595C16.0872 3.55065 11.9706 6.5753 9.09072 10.6315C6.21079 14.6877 4.72083 19.5595 4.84173 24.5247L2.19454 25.3808L0.114014 29.4475L2.20062 35.8244L6.28474 37.893L8.93196 37.037C11.7712 41.1229 15.858 44.1893 20.5863 45.7814C25.3147 47.3734 30.4327 47.4064 35.1813 45.8753C39.9243 44.3313 44.041 41.3071 46.921 37.2511C49.801 33.1952 51.2909 28.3235 51.1698 23.3585L53.817 22.5005L55.8955 18.4358L53.8109 12.0588L49.7268 9.98824ZM21.0407 2.64848C25.6178 1.17308 30.5491 1.194 35.1134 2.70818C39.6777 4.22236 43.6354 7.15034 46.4076 11.0638L45.4322 11.3801C42.759 7.71609 38.9896 4.9878 34.6636 3.58583C30.3375 2.18385 25.6766 2.18006 21.3483 3.57501C17.0231 4.98166 13.2559 7.71418 10.5861 11.3814C7.91637 15.0486 6.48085 19.4624 6.4851 23.991L5.50962 24.3072C5.43701 19.5198 6.90555 14.8349 9.70044 10.9378C12.4953 7.04075 16.4699 4.136 21.0427 2.64848H21.0407ZM45.3411 17.3139L45.8248 18.7943L44.1733 19.3281L44.7602 21.1248L46.5959 20.5306L47.0978 22.0694L43.4832 23.2417L40.9088 15.3621L44.4101 14.2281L44.91 15.7569L43.1877 16.3149L43.6916 17.8537L45.3411 17.3139ZM35.2987 14.6592C33.7706 13.468 31.9713 12.6694 30.0597 12.334C28.1481 11.9985 26.1829 12.1364 24.3375 12.7356C22.491 13.3314 20.8203 14.3706 19.473 15.7613C18.1258 17.1521 17.1433 18.8516 16.6125 20.7098L7.16109 23.7694C7.20317 19.4217 8.61445 15.1966 11.1962 11.6891C13.778 8.18164 17.4002 5.56846 21.5527 4.21754C25.7092 2.8776 30.1834 2.8692 34.345 4.19353C38.5066 5.51786 42.1458 8.10818 44.7501 11.5996L35.2987 14.6592ZM36.6304 18.4217L36.1325 16.903L39.9617 15.6622L40.4595 17.183L39.4193 17.5193L41.4998 23.8822L39.7492 24.4502L37.6686 18.0853L36.6304 18.4217ZM26.9483 17.0762L25.7886 16.8627L24.9791 17.7147L24.8253 16.5485L23.7587 16.0429L24.8232 15.5374L24.9791 14.3732L25.7886 15.2252L26.9503 15.0096L26.3877 16.0429L26.9483 17.0762ZM29.1239 30.4042L30.2836 30.6177L31.0931 29.7637L31.247 30.9299L32.3135 31.4355L31.247 31.941L31.0931 33.1053L30.2836 32.2532L29.1219 32.4688L29.6845 31.4355L29.1239 30.4042ZM30.8381 27.3346L30.3261 26.1865L29.4417 26.4745L29.721 27.6971L28.0189 28.247L26.3371 20.0734L29.0835 19.1891L32.5362 26.7887L30.8381 27.3346ZM29.893 15.9664L29.0693 15.8153L28.4925 16.4196L28.3832 15.5938L27.6283 15.2332L28.3832 14.8747L28.4925 14.0489L29.0693 14.6531L29.893 14.5001L29.4882 15.2332L29.893 15.9664ZM32.7385 29.4032L33.5623 29.5542L34.137 28.95L34.2483 29.7778L35.0032 30.1363L34.2483 30.4949L34.139 31.3207L33.5623 30.7164L32.7385 30.8695L33.1433 30.1363L32.7385 29.4032ZM33.4732 26.4906L30.9049 18.599L32.7062 18.0148L34.7442 21.5256L33.5117 17.755L35.2016 17.2071L37.7779 25.0907L36.0678 25.6446L33.9043 21.9828L35.1935 25.9286L33.4732 26.4906ZM26.1752 31.5261L26.9969 31.6792L27.5737 31.0749L27.685 31.9028L28.4399 32.2613L27.685 32.6198L27.5757 33.4457L26.9989 32.8414L26.1752 32.9945L26.58 32.2613L26.1752 31.5261ZM25.5842 23.5599C25.6016 23.6941 25.5968 23.8302 25.5701 23.9628C25.5383 24.0933 25.4827 24.2168 25.4061 24.3274C25.3153 24.4648 25.1976 24.5827 25.06 24.6738C25.2132 24.65 25.3699 24.6624 25.5174 24.7101C25.6461 24.7527 25.7598 24.8309 25.8453 24.9356C25.9233 25.0275 25.9912 25.1274 26.0477 25.2338C26.1023 25.34 26.1484 25.4505 26.1853 25.5641C26.6103 26.8666 26.9267 27.8589 27.1345 28.5411L25.4243 29.093L24.4124 26.0213C24.383 25.9215 24.338 25.827 24.2788 25.7413C24.2571 25.7103 24.2288 25.6843 24.1959 25.6652C24.1631 25.646 24.1265 25.6342 24.0886 25.6306C24.0176 25.6183 23.945 25.6183 23.8741 25.6306C23.8093 25.6446 23.7121 25.6728 23.5826 25.7131L24.7544 29.3024L22.9856 29.8745L20.4072 21.9909L23.0929 21.1228C23.3311 21.0384 23.5828 20.9982 23.8356 21.0039C24.0303 21.0088 24.2213 21.0577 24.3942 21.1469C24.563 21.249 24.7073 21.3864 24.8172 21.5498C24.9444 21.7236 25.0523 21.9107 25.139 22.1077C25.224 22.3091 25.313 22.5387 25.4061 22.8227C25.4547 22.9698 25.4911 23.0926 25.5174 23.1893C25.5513 23.3087 25.5749 23.4306 25.5883 23.5539L25.5842 23.5599ZM23.3296 18.0894L22.5059 17.9383L21.9291 18.5426L21.8198 17.7167L21.065 17.3562L21.8198 16.9977L21.9291 16.1718L22.5059 16.7761L23.3296 16.623L22.9249 17.3562L23.3296 18.0894ZM22.0465 30.1867L20.3566 30.7345L19.8425 29.5864L18.9642 29.8644L19.2435 31.087L17.5414 31.6369L15.8596 23.4633L18.5999 22.577L22.0465 30.1867ZM9.79612 25.4332L11.4982 24.8813L13.3541 30.5573C13.3804 30.6439 13.4047 30.7104 13.4229 30.7587C13.4472 30.8284 13.4777 30.8958 13.5139 30.9601C13.546 31.0283 13.5898 31.0904 13.6435 31.1434C13.6925 31.1861 13.7506 31.2171 13.8135 31.2341C13.8892 31.2529 13.9689 31.2487 14.0422 31.222C14.1049 31.2035 14.1628 31.1719 14.2122 31.1293C14.2551 31.0899 14.2853 31.0387 14.2992 30.9823C14.3124 30.9294 14.3212 30.8755 14.3255 30.8212C14.3275 30.7574 14.3207 30.6937 14.3053 30.6318C14.2871 30.5553 14.2729 30.4969 14.2608 30.4566C14.2486 30.4163 14.2324 30.3599 14.2081 30.2874L12.3523 24.6114L14.0543 24.0595L15.9486 29.8563C16.1814 30.5674 16.1855 31.1656 15.9649 31.645C15.7443 32.1243 15.2666 32.4829 14.5482 32.7145C13.8297 32.9461 13.2084 32.9482 12.7449 32.6903C12.2814 32.4325 11.9353 31.9471 11.6986 31.2341L9.79612 25.4332ZM20.7047 33.2241C22.2329 34.4151 24.0321 35.2138 25.9436 35.5496C27.8551 35.8854 29.8203 35.748 31.6659 35.1497C33.5121 34.5528 35.1824 33.513 36.5296 32.122C37.8768 30.731 38.8594 29.0316 39.3909 27.1734L48.8424 24.1139C48.8007 28.462 47.3894 32.6875 44.8071 36.1952C42.2249 39.7028 38.6019 42.3157 34.4487 43.6657C30.2925 45.0055 25.8186 45.0138 21.6574 43.6895C17.4962 42.3652 13.8573 39.7749 11.2533 36.2837L20.7047 33.2241ZM6.13295 32.7387L5.01578 29.3246C4.90133 28.9956 4.84385 28.6496 4.84579 28.3014C4.84485 28.0403 4.8979 27.7818 5.00163 27.542C5.09908 27.34 5.2368 27.1597 5.4064 27.0123C5.56192 26.8723 5.73466 26.7525 5.92046 26.6558C6.0961 26.5717 6.27731 26.4997 6.46284 26.4403C6.68499 26.3662 6.9132 26.3117 7.14488 26.2771C7.3334 26.2491 7.52508 26.2491 7.7136 26.2771C7.87076 26.3003 8.02485 26.3409 8.17301 26.398C8.31552 26.4559 8.4454 26.5407 8.5555 26.6477C8.66434 26.7535 8.76577 26.8665 8.85908 26.9861C8.9582 27.1232 9.04362 27.2696 9.11409 27.4232C9.19706 27.5984 9.26791 27.7656 9.32863 27.9207C9.38934 28.0758 9.45411 28.2611 9.53101 28.4766L7.86133 29.0164L7.65895 28.394C7.62724 28.2874 7.57945 28.1863 7.51726 28.0939C7.47665 28.031 7.41718 27.9824 7.34727 27.9549C7.29786 27.9376 7.24584 27.9287 7.19345 27.9288C7.14583 27.9304 7.09875 27.9392 7.05382 27.9549C6.97053 27.9783 6.89277 28.0181 6.82512 28.0718C6.77711 28.1116 6.739 28.1619 6.7138 28.2188C6.69218 28.2972 6.69218 28.38 6.7138 28.4585C6.72908 28.5611 6.75072 28.6627 6.77858 28.7626C6.80691 28.8553 6.85142 29.0023 6.91618 29.1997L7.91395 32.2472C7.94392 32.3453 7.97975 32.4414 8.02122 32.5352C8.05985 32.6199 8.10732 32.7002 8.16288 32.7749C8.21468 32.8511 8.28997 32.9084 8.3774 32.9381C8.47165 32.9633 8.57149 32.9583 8.66277 32.924C8.73794 32.908 8.80597 32.8684 8.85695 32.8112C8.90793 32.7539 8.93918 32.6819 8.94612 32.6057C8.94485 32.3687 8.90027 32.134 8.81456 31.9129L8.51706 31.0004L8.04954 31.1535L7.60633 29.7919L9.72327 29.1051L11.225 33.6995L10.5429 33.919L10.0268 33.347C9.95952 33.6403 9.81257 33.9096 9.60201 34.1256C9.39146 34.3415 9.12537 34.4958 8.83277 34.5716C7.56044 34.9758 6.65847 34.3641 6.12688 32.7367L6.13295 32.7387ZM34.9688 45.2267C30.3923 46.7025 25.4613 46.682 20.8973 45.1681C16.3333 43.6543 12.3758 40.7266 9.60387 36.8134L10.5794 36.4972C13.253 40.1605 17.0225 42.8882 21.3485 44.2898C25.6745 45.6914 30.3351 45.695 34.6632 44.3002C38.9869 42.8939 42.7529 40.1625 45.4222 36.4969C48.0915 32.8313 49.5274 28.4193 49.5244 23.8923L50.4999 23.5761C50.5718 28.3636 49.1024 33.0484 46.3068 36.9452C43.5112 40.8419 39.536 43.7461 34.9628 45.2328L34.9688 45.2267ZM51.8012 20.5447L48.1846 21.7149L45.6082 13.8313L49.1095 12.6973L49.6094 14.2281L47.8891 14.7841L48.391 16.3229L50.0425 15.7891L50.5262 17.2696L48.8747 17.8034L49.4616 19.6L51.2973 19.0058L51.8012 20.5447Z" fill="#59617D"/>
</svg>
