<svg width="99" height="15" viewBox="0 0 99 15" fill="none" xmlns="http://www.w3.org/2000/svg">
<g clip-path="url(#clip0_418_846)">
<path d="M8.92352 0H0.458326C0.398138 0 0.338539 0.0119505 0.282933 0.0351676C0.227326 0.0583847 0.1768 0.0924129 0.13424 0.135312C0.0916805 0.178212 0.057921 0.229143 0.0348879 0.285194C0.0118548 0.341245 0 0.401318 0 0.461987V2.2742C-5.96686e-08 2.33484 0.0118587 2.39489 0.0348997 2.4509C0.0579407 2.50692 0.0917114 2.5578 0.13428 2.60065C0.176848 2.6435 0.227378 2.67747 0.282981 2.70061C0.338584 2.72376 0.398168 2.73563 0.458326 2.73554H8.92352C9.04491 2.73554 9.16132 2.68694 9.24715 2.60042C9.33299 2.5139 9.38121 2.39656 9.38121 2.2742V0.461987C9.38129 0.401349 9.36951 0.341288 9.34655 0.285241C9.32359 0.229194 9.28989 0.17826 9.24738 0.135352C9.20487 0.092444 9.15439 0.0584045 9.09882 0.0351795C9.04325 0.0119544 8.98368 -6.01452e-08 8.92352 0Z" fill="#845DE2"/>
<path d="M13.7369 4.25146H3.50095C3.3795 4.25146 3.26302 4.30005 3.17709 4.38655C3.09115 4.47305 3.04279 4.59039 3.04262 4.7128V6.52827C3.04279 6.65068 3.09115 6.76803 3.17709 6.85453C3.26302 6.94102 3.3795 6.98961 3.50095 6.98961H13.7369C13.797 6.98961 13.8565 6.97767 13.9121 6.95449C13.9676 6.9313 14.0181 6.89732 14.0606 6.85449C14.1031 6.81165 14.1368 6.76079 14.1598 6.70482C14.1828 6.64884 14.1946 6.58885 14.1946 6.52827V4.7128C14.1946 4.59045 14.1464 4.47311 14.0606 4.38659C13.9747 4.30007 13.8583 4.25146 13.7369 4.25146Z" fill="#6E55FF"/>
<path d="M13.7369 8.50226H11.3589C11.2375 8.50243 11.1211 8.55118 11.0352 8.6378C10.9494 8.72442 10.9012 8.84184 10.9012 8.96425V10.7791C10.9011 10.8397 10.9129 10.8998 10.9359 10.9558C10.9588 11.0119 10.9925 11.0628 11.0351 11.1057C11.0776 11.1486 11.128 11.1826 11.1836 11.2059C11.2392 11.2291 11.2988 11.2411 11.3589 11.2411H13.7369C13.8585 11.2411 13.9751 11.1924 14.061 11.1057C14.147 11.0191 14.1953 10.9016 14.1953 10.7791V8.96685C14.1956 8.90596 14.184 8.84561 14.1611 8.78925C14.1382 8.7329 14.1045 8.68167 14.0619 8.63849C14.0193 8.59532 13.9687 8.56105 13.9129 8.53767C13.8571 8.51429 13.7973 8.50226 13.7369 8.50226Z" fill="#6E55FF"/>
<path d="M8.92352 8.50226H6.54357C6.42195 8.50295 6.30558 8.55226 6.22001 8.63937C6.13444 8.72648 6.08666 8.84426 6.08718 8.96685V10.7817C6.08718 10.9042 6.13546 11.0217 6.22142 11.1083C6.30737 11.195 6.42395 11.2436 6.5455 11.2436H8.92352C8.98368 11.2436 9.04325 11.2317 9.09882 11.2085C9.15439 11.1852 9.20487 11.1512 9.24738 11.1083C9.28989 11.0654 9.32359 11.0145 9.34655 10.9584C9.36951 10.9024 9.38129 10.8423 9.3812 10.7817V8.96685C9.38154 8.90601 9.36996 8.84571 9.34712 8.78941C9.32428 8.7331 9.29063 8.68189 9.24811 8.63872C9.20558 8.59555 9.15502 8.56128 9.09932 8.53786C9.04361 8.51444 8.98387 8.50234 8.92352 8.50226Z" fill="#6E55FF"/>
<path d="M13.7369 0H11.3589C11.2988 -6.01452e-08 11.2392 0.0119544 11.1836 0.0351795C11.128 0.0584045 11.0776 0.092444 11.0351 0.135352C10.9925 0.17826 10.9588 0.229194 10.9359 0.285241C10.9129 0.341288 10.9011 0.401349 10.9012 0.461987V2.2742C10.9012 2.33479 10.9131 2.39478 10.9361 2.45075C10.9591 2.50672 10.9928 2.55758 11.0353 2.60042C11.0778 2.64326 11.1282 2.67724 11.1838 2.70042C11.2393 2.72361 11.2988 2.73554 11.3589 2.73554H13.7369C13.7971 2.73563 13.8567 2.72376 13.9123 2.70061C13.9679 2.67747 14.0184 2.6435 14.061 2.60065C14.1035 2.5578 14.1373 2.50692 14.1604 2.4509C14.1834 2.39489 14.1953 2.33484 14.1953 2.2742V0.461987C14.1953 0.33946 14.147 0.221952 14.061 0.135312C13.9751 0.0486728 13.8585 0 13.7369 0Z" fill="#6E55FF"/>
<path d="M25.9751 0.632202H28.0005C28.0266 0.632202 28.0525 0.637399 28.0766 0.647497C28.1008 0.657595 28.1227 0.672395 28.1411 0.691048C28.1596 0.709701 28.1742 0.73184 28.1841 0.756196C28.1941 0.780552 28.1991 0.806646 28.1991 0.832982V4.30277C28.6806 3.61726 29.545 3.14617 30.6364 3.14617C32.4362 3.14617 33.6403 4.40283 33.6403 6.54578V11.0013C33.6404 11.0276 33.6353 11.0537 33.6254 11.0781C33.6154 11.1024 33.6008 11.1246 33.5824 11.1432C33.5639 11.1619 33.542 11.1767 33.5179 11.1868C33.4938 11.1969 33.4679 11.2021 33.4418 11.2021H31.4305C31.3777 11.2021 31.3271 11.1809 31.2897 11.1432C31.2523 11.1056 31.2314 11.0545 31.2314 11.0013V6.87392C31.2314 5.78879 30.6364 5.18841 29.7152 5.18841C28.794 5.18841 28.1978 5.78879 28.1978 6.87392V11.0013C28.1978 11.0276 28.1928 11.0537 28.1828 11.0781C28.1729 11.1024 28.1583 11.1246 28.1398 11.1432C28.1214 11.1619 28.0995 11.1767 28.0753 11.1868C28.0512 11.1969 28.0253 11.2021 27.9992 11.2021H25.9751C25.9223 11.2021 25.8716 11.1809 25.8342 11.1432C25.7969 11.1056 25.7759 11.0545 25.7759 11.0013V0.832982C25.7759 0.779732 25.7969 0.728662 25.8342 0.691008C25.8716 0.653355 25.9223 0.632202 25.9751 0.632202Z" fill="#172351"/>
<path d="M38.8399 11.1865C36.516 11.1865 34.8432 9.61535 34.8432 7.08709C34.8432 4.55882 36.487 2.98767 38.8399 2.98767C41.1496 2.98767 42.7792 4.53023 42.7792 6.95843C42.7792 7.13062 42.7708 7.31061 42.7547 7.49254C42.75 7.54195 42.7272 7.5878 42.6907 7.62111C42.6542 7.65441 42.6066 7.67275 42.5574 7.67253H37.2528C37.3379 8.71217 37.9754 9.20079 38.7548 9.20079C39.2892 9.20079 39.6398 8.98897 39.8616 8.69072C39.9184 8.6116 39.9927 8.54691 40.0787 8.50179C40.1646 8.45667 40.2598 8.43237 40.3567 8.43082H42.3292C42.3603 8.43098 42.391 8.43847 42.4187 8.45268C42.4464 8.4669 42.4705 8.48744 42.489 8.51268C42.5074 8.53793 42.5198 8.56717 42.5251 8.59808C42.5304 8.62899 42.5284 8.66071 42.5194 8.69072C42.0501 10.1196 40.697 11.1865 38.8399 11.1865ZM37.267 6.3132H40.2967C40.2967 5.44186 39.6166 4.94219 38.8089 4.94219C38.018 4.94478 37.4088 5.43017 37.267 6.31581V6.3132Z" fill="#172351"/>
<path d="M54.9497 6.87392C54.9497 5.83429 54.3547 5.25989 53.4335 5.25989C52.5123 5.25989 51.9174 5.83169 51.9174 6.87392V11.0013C51.9174 11.0545 51.8964 11.1056 51.859 11.1432C51.8217 11.1809 51.771 11.2021 51.7182 11.2021H49.7069C49.6808 11.2021 49.6549 11.1969 49.6308 11.1868C49.6067 11.1767 49.5848 11.1619 49.5663 11.1432C49.5479 11.1246 49.5333 11.1024 49.5233 11.0781C49.5134 11.0537 49.5083 11.0276 49.5084 11.0013V6.87392C49.5084 5.83429 48.9134 5.25989 47.9922 5.25989C47.0711 5.25989 46.4761 5.83169 46.4761 6.87392V11.0013C46.4761 11.0545 46.4551 11.1056 46.4177 11.1432C46.3804 11.1809 46.3297 11.2021 46.2769 11.2021H44.2521C44.226 11.2021 44.2001 11.1969 44.176 11.1868C44.1519 11.1767 44.13 11.1619 44.1115 11.1432C44.0931 11.1246 44.0785 11.1024 44.0685 11.0781C44.0586 11.0537 44.0535 11.0276 44.0536 11.0013V3.43208C44.0536 3.379 44.0745 3.3281 44.1117 3.29057C44.149 3.25303 44.1995 3.23195 44.2521 3.23195H46.2775C46.3037 3.23186 46.3296 3.23698 46.3537 3.247C46.3779 3.25702 46.3998 3.27174 46.4184 3.29034C46.4369 3.30893 46.4515 3.33102 46.4616 3.35534C46.4716 3.37966 46.4767 3.40574 46.4767 3.43208V4.23195C46.9441 3.58867 47.7518 3.14618 48.7864 3.14618C49.9764 3.14618 50.9401 3.67444 51.4784 4.63156C51.7638 4.17916 52.1573 3.80615 52.6227 3.54666C53.0881 3.28716 53.6107 3.14947 54.1426 3.14618C56.0977 3.14618 57.3593 4.40284 57.3593 6.54579V11.0013C57.3593 11.0545 57.3383 11.1056 57.3009 11.1432C57.2636 11.1809 57.2129 11.2021 57.1601 11.2021H55.1489C55.1227 11.2021 55.0969 11.1969 55.0727 11.1868C55.0486 11.1767 55.0267 11.1619 55.0082 11.1432C54.9898 11.1246 54.9752 11.1024 54.9652 11.0781C54.9553 11.0537 54.9502 11.0276 54.9503 11.0013L54.9497 6.87392Z" fill="#172351"/>
<path d="M62.5723 11.1865C60.2517 11.1865 58.5757 9.61535 58.5757 7.08709C58.5757 4.55882 60.2194 2.98767 62.5723 2.98767C64.882 2.98767 66.5116 4.53023 66.5116 6.95843C66.5116 7.13062 66.5032 7.31061 66.4871 7.49254C66.4826 7.542 66.4598 7.58795 66.4233 7.62128C66.3868 7.65461 66.3391 7.6729 66.2899 7.67253H60.9853C61.0703 8.71217 61.7079 9.20079 62.4872 9.20079C63.1145 9.20079 63.489 8.90905 63.6985 8.52828C63.7156 8.4979 63.7404 8.47271 63.7705 8.45534C63.8005 8.43797 63.8347 8.42904 63.8693 8.42951H66.061C66.0921 8.42968 66.1228 8.43717 66.1505 8.45138C66.1783 8.4656 66.2023 8.48614 66.2208 8.51139C66.2393 8.53663 66.2516 8.56587 66.2569 8.59678C66.2622 8.62769 66.2602 8.65941 66.2512 8.68942C65.7825 10.1196 64.4295 11.1865 62.5723 11.1865ZM60.9994 6.3132H64.0292C64.0292 5.44186 63.3491 4.94219 62.5414 4.94219C61.7504 4.94478 61.1413 5.43017 60.9994 6.31581V6.3132Z" fill="#172351"/>
<path d="M67.9846 0.632202H70.0106C70.0368 0.632202 70.0626 0.637399 70.0868 0.647497C70.1109 0.657595 70.1328 0.672395 70.1513 0.691048C70.1697 0.709701 70.1843 0.73184 70.1943 0.756196C70.2042 0.780552 70.2093 0.806646 70.2092 0.832982V4.30277C70.6907 3.61726 71.5552 3.14617 72.6465 3.14617C74.4456 3.14617 75.6504 4.40283 75.6504 6.54578V11.0013C75.6504 11.0545 75.6295 11.1056 75.5921 11.1432C75.5548 11.1809 75.5041 11.2021 75.4513 11.2021H73.44C73.4139 11.2021 73.388 11.1969 73.3639 11.1868C73.3398 11.1767 73.3179 11.1619 73.2994 11.1432C73.281 11.1246 73.2664 11.1024 73.2564 11.0781C73.2465 11.0537 73.2414 11.0276 73.2415 11.0013V6.87392C73.2415 5.78879 72.6465 5.18841 71.7253 5.18841C70.8042 5.18841 70.2092 5.78879 70.2092 6.87392V11.0013C70.2093 11.0276 70.2042 11.0537 70.1943 11.0781C70.1843 11.1024 70.1697 11.1246 70.1513 11.1432C70.1328 11.1619 70.1109 11.1767 70.0868 11.1868C70.0626 11.1969 70.0368 11.2021 70.0106 11.2021H67.9846C67.9585 11.2021 67.9326 11.1969 67.9085 11.1868C67.8843 11.1767 67.8624 11.1619 67.844 11.1432C67.8255 11.1246 67.8109 11.1024 67.801 11.0781C67.791 11.0537 67.786 11.0276 67.786 11.0013V0.832982C67.786 0.806646 67.791 0.780552 67.801 0.756196C67.8109 0.73184 67.8255 0.709701 67.844 0.691048C67.8624 0.672395 67.8843 0.657595 67.9085 0.647497C67.9326 0.637399 67.9585 0.632202 67.9846 0.632202Z" fill="#172351"/>
<path d="M79.5601 3.23199H77.534C77.4244 3.23199 77.3355 3.3216 77.3355 3.43212V11.002C77.3355 11.1125 77.4244 11.2021 77.534 11.2021H79.5601C79.6697 11.2021 79.7586 11.1125 79.7586 11.002V3.43212C79.7586 3.3216 79.6697 3.23199 79.5601 3.23199Z" fill="#172351"/>
<path d="M84.5192 2.98895C85.6795 2.98895 86.5317 3.51722 86.9565 4.23197V3.30214C86.9565 3.27581 86.9616 3.24973 86.9717 3.22541C86.9817 3.20108 86.9964 3.17899 87.0149 3.1604C87.0334 3.14181 87.0553 3.12708 87.0795 3.11706C87.1037 3.10704 87.1295 3.10193 87.1557 3.10201H89.1792C89.2318 3.10201 89.2823 3.1231 89.3195 3.16063C89.3568 3.19816 89.3777 3.24907 89.3777 3.30214V11.0578C89.3777 13.1858 88.1594 15 85.4242 15C83.168 15 81.6725 13.8993 81.3631 12.1377C81.3581 12.109 81.3593 12.0795 81.3666 12.0513C81.3739 12.0231 81.3873 11.9968 81.4056 11.9743C81.424 11.9518 81.447 11.9335 81.473 11.9208C81.4991 11.9081 81.5275 11.9012 81.5565 11.9006H83.5774C83.6169 11.9 83.6556 11.9117 83.6883 11.934C83.7211 11.9563 83.7462 11.9882 83.7604 12.0253C83.9629 12.553 84.534 12.8856 85.3075 12.8856C86.2287 12.8856 86.9513 12.4003 86.9513 11.0578V9.92917C86.5123 10.629 85.6763 11.1865 84.514 11.1865C82.573 11.1865 81.0285 9.58674 81.0285 7.07277C81.0285 4.5588 82.5782 2.98895 84.5192 2.98895ZM85.2283 5.11696C84.3213 5.11696 83.5 5.80312 83.5 7.07407C83.5 8.34503 84.3213 9.05913 85.2283 9.05913C86.1494 9.05913 86.9571 8.35932 86.9571 7.08837C86.9571 5.81741 86.1494 5.11566 85.2276 5.11566L85.2283 5.11696Z" fill="#172351"/>
<path d="M91.3348 0.632202H93.3602C93.3863 0.632202 93.4122 0.637399 93.4363 0.647497C93.4604 0.657595 93.4824 0.672395 93.5008 0.691048C93.5192 0.709701 93.5339 0.73184 93.5438 0.756196C93.5537 0.780552 93.5588 0.806646 93.5587 0.832982V4.30277C94.0403 3.61726 94.9047 3.14617 95.9961 3.14617C97.7958 3.14617 99 4.40283 99 6.54578V11.0013C99.0001 11.0276 98.995 11.0537 98.9851 11.0781C98.9751 11.1024 98.9605 11.1246 98.9421 11.1432C98.9236 11.1619 98.9017 11.1767 98.8776 11.1868C98.8534 11.1969 98.8276 11.2021 98.8015 11.2021H96.7902C96.7374 11.2021 96.6867 11.1809 96.6494 11.1432C96.612 11.1056 96.591 11.0545 96.591 11.0013V6.87392C96.591 5.78879 95.9961 5.18841 95.0749 5.18841C94.1537 5.18841 93.5587 5.78879 93.5587 6.87392V11.0013C93.5588 11.0276 93.5537 11.0537 93.5438 11.0781C93.5339 11.1024 93.5192 11.1246 93.5008 11.1432C93.4824 11.1619 93.4604 11.1767 93.4363 11.1868C93.4122 11.1969 93.3863 11.2021 93.3602 11.2021H91.3348C91.2819 11.2021 91.2313 11.1809 91.1939 11.1432C91.1566 11.1056 91.1356 11.0545 91.1356 11.0013V0.832982C91.1356 0.779732 91.1566 0.728662 91.1939 0.691008C91.2313 0.653355 91.2819 0.632202 91.3348 0.632202Z" fill="#172351"/>
<path d="M24.4312 9.33071V11.0019C24.4311 11.0551 24.41 11.106 24.3727 11.1435C24.3353 11.181 24.2848 11.2021 24.232 11.2021H23.2006C21.5562 11.2021 20.4081 10.5016 20.4081 8.43142V0.832982C20.4081 0.779732 20.4291 0.728662 20.4665 0.691008C20.5038 0.653355 20.5545 0.632202 20.6073 0.632202H22.6321C22.6849 0.632202 22.7356 0.653355 22.7729 0.691008C22.8103 0.728662 22.8313 0.779732 22.8313 0.832982V2.70368V5.45806V8.46001C22.8313 8.9298 23.0298 9.13058 23.5681 9.13058H24.2346C24.2869 9.13126 24.3368 9.15262 24.3736 9.19006C24.4104 9.2275 24.4311 9.27802 24.4312 9.33071Z" fill="#172351"/>
<path d="M79.5839 0.00781582H77.5115C77.4431 0.00781582 77.3775 0.0351988 77.3292 0.0839412C77.2808 0.132684 77.2536 0.198793 77.2536 0.267725V1.9019C77.2536 1.97083 77.2808 2.03694 77.3292 2.08569C77.3775 2.13443 77.4431 2.16181 77.5115 2.16181H79.5852C79.6536 2.16181 79.7192 2.13443 79.7676 2.08569C79.8159 2.03694 79.8431 1.97083 79.8431 1.9019V0.265125C79.8424 0.196419 79.8148 0.13078 79.7662 0.0825611C79.7176 0.0343425 79.6521 0.00746884 79.5839 0.00781582Z" fill="#172351"/>
<path d="M24.6936 3.86096H23.2922C23.1968 3.86096 23.1194 3.96298 23.1194 4.08838V5.53218C23.1194 5.65823 23.1968 5.76025 23.2922 5.76025H24.6936C24.7896 5.76025 24.867 5.65823 24.867 5.53218V4.08838C24.867 3.96363 24.7896 3.86096 24.6936 3.86096Z" fill="#172351"/>
</g>
<defs>
<clipPath id="clip0_418_846">
<rect width="99" height="15" fill="white"/>
</clipPath>
</defs>
</svg>
