<svg width="499" height="155" viewBox="0 0 499 155" fill="none" xmlns="http://www.w3.org/2000/svg">
<mask id="mask0_925_29" style="mask-type:alpha" maskUnits="userSpaceOnUse" x="0" y="0" width="499" height="155">
<rect width="499" height="155" fill="#D9D9D9"/>
</mask>
<g mask="url(#mask0_925_29)">
<g clip-path="url(#clip0_925_29)">
<path d="M61.2589 143.323C60.8749 143.552 60.5494 143.867 60.3079 144.243C60.0665 144.62 59.9156 145.047 59.8674 145.491C61.3538 146.002 62.7054 146.843 63.8215 147.95C64.1284 147.088 64.7329 146.364 65.5261 145.909C64.2954 144.764 62.8431 143.884 61.2589 143.323Z" fill="white"/>
<path d="M436.771 108.571C435.253 107.468 433.554 106.64 431.75 106.124C431.44 107.235 431.44 108.41 431.75 109.522C432.912 109.649 433.999 110.154 434.846 110.96C434.97 110.444 435.207 109.962 435.54 109.549C435.873 109.136 436.293 108.802 436.771 108.571Z" fill="white"/>
<path d="M423.171 41.5307C421.621 40.9787 419.95 40.8545 418.336 41.1712C417.953 42.0989 417.896 43.1289 418.173 44.0933C419.764 43.7612 421.416 43.9023 422.927 44.4991C422.712 44.0245 422.621 43.5028 422.664 42.9833C422.706 42.4638 422.881 41.9638 423.171 41.5307Z" fill="white"/>
<path d="M261.828 60.7274C261.524 60.6017 261.196 60.5477 260.868 60.5699C260.54 60.592 260.222 60.6895 259.938 60.8549C260.291 61.9547 260.391 63.1204 260.228 64.264C260.869 64.0647 261.56 64.1017 262.176 64.3684C262.308 63.1437 262.19 61.905 261.828 60.7274Z" fill="white"/>
<path d="M122.414 122.717C122.11 122.958 121.758 123.132 121.382 123.228C121.922 123.775 122.383 124.396 122.75 125.071C123.133 125.074 123.504 124.938 123.794 124.689C123.413 123.98 122.95 123.318 122.414 122.717Z" fill="white"/>
<path d="M93 71.064C93.5852 71.3141 94.0564 71.7728 94.3219 72.3511C94.9254 71.5483 95.3917 70.651 95.7018 69.6957C95.2069 69.3526 94.6462 69.1157 94.0552 69C93.8692 69.7609 93.5079 70.4677 93 71.064Z" fill="white"/>
<path d="M305.196 126.88C304.946 126.86 304.694 126.905 304.467 127.01C304.239 127.116 304.043 127.279 303.897 127.483C303.949 127.965 304.156 128.417 304.488 128.77C305.085 128.628 305.71 128.665 306.286 128.875C305.794 128.288 305.424 127.611 305.196 126.88Z" fill="white"/>
<path d="M177.832 95.6902C178.177 95.6756 178.512 95.5717 178.805 95.3888C179.097 95.2059 179.338 94.9501 179.502 94.6466C179.352 93.9978 178.988 93.4181 178.47 93C177.679 93.2877 176.822 93.344 176 93.1623C176.774 93.8734 177.397 94.7331 177.832 95.6902Z" fill="white"/>
<path d="M369.169 138.441C369.043 138.79 369.043 139.171 369.169 139.519C370.302 139.219 371.481 139.129 372.647 139.253C372.573 138.91 372.61 138.553 372.752 138.232C371.556 138.051 370.335 138.122 369.169 138.441Z" fill="white"/>
<path d="M191.895 127.901C192.128 128.622 192.485 129.297 192.95 129.895C193.315 129.605 193.598 129.225 193.774 128.794C193.423 128.472 193.187 128.044 193.101 127.576C192.937 127.717 192.743 127.819 192.535 127.875C192.326 127.931 192.108 127.94 191.895 127.901Z" fill="white"/>
<path d="M160.343 49.3869C160.155 49.6966 160.07 50.0578 160.1 50.4189C160.491 50.3392 160.898 50.388 161.259 50.558C161.447 50.2728 161.577 49.9538 161.642 49.6188C161.198 49.6305 160.756 49.5516 160.343 49.3869Z" fill="white"/>
<path d="M382.515 97.1144C383.984 97.2149 385.389 97.7519 386.55 98.6566C386.875 97.9841 387.165 97.613 387.629 97.497C386.403 96.4041 384.897 95.6735 383.28 95.3866C382.877 95.8846 382.613 96.4809 382.515 97.1144Z" fill="white"/>
<path d="M165.318 70.1662C164.827 69.7533 164.431 69.2391 164.158 68.6588C163.453 69.7335 162.607 70.7085 161.642 71.5577C161.766 72.1896 162.121 72.7522 162.639 73.1347C163.648 72.256 164.547 71.2593 165.318 70.1662Z" fill="white"/>
<path d="M127.302 39.3511C126.197 38.4248 125.29 37.285 124.635 36C123.939 36.321 123.366 36.8578 123 37.5306C123.655 38.8544 124.503 40.0737 125.516 41.1485C125.957 40.0585 126.363 39.5135 127.302 39.3511Z" fill="white"/>
<path d="M289.078 90.0643C289.69 90.47 290.369 90.7644 291.084 90.9339C291.2 90.497 291.2 90.0374 291.084 89.6004C290.626 89.569 290.19 89.39 289.843 89.0902C289.797 89.2997 289.704 89.496 289.572 89.6647C289.439 89.8333 289.27 89.9699 289.078 90.0643Z" fill="white"/>
<path d="M145.988 82.0285C146.075 81.9775 146.172 81.9459 146.272 81.9359C146.372 81.9259 146.473 81.9377 146.568 81.9705C146.559 81.4248 146.477 80.8828 146.324 80.3587C146.083 80.3171 145.835 80.3411 145.605 80.4283C145.87 80.9192 146.002 81.4709 145.988 82.0285Z" fill="white"/>
<path d="M54.9858 88.5684C55.4056 88.5831 55.8168 88.4474 56.1454 88.1858C55.4872 87.0281 55.036 85.7646 54.8119 84.452C54.4584 84.6459 54.05 84.7153 53.6523 84.6491C53.8171 86.0346 54.2714 87.3699 54.9858 88.5684Z" fill="white"/>
<path d="M81.957 130.834C82.265 131.228 82.4845 131.684 82.6006 132.17C82.7166 132.656 82.7265 133.162 82.6296 133.652C85.3061 133.257 87.9113 132.475 90.3638 131.333C90.4337 130.126 90.1731 128.924 89.6102 127.854C87.3613 129.496 84.7236 130.523 81.957 130.834Z" fill="#FF0E41"/>
<path d="M390.133 128.736C390.725 129.895 391.722 130.44 393.473 130.881C394.251 128.586 395.548 126.503 397.265 124.793C395.93 124.32 394.81 123.381 394.111 122.149C392.348 124.049 390.994 126.291 390.133 128.736Z" fill="#FFAF00"/>
<path d="M100.899 95.0071C100.36 94.9733 99.8203 95.0598 99.3189 95.2604C98.8175 95.461 98.367 95.7705 98 96.1667C98.4921 97.8852 98.7762 99.6565 98.8465 101.443C99.3746 101.194 99.9568 101.082 100.539 101.118C100.348 99.0746 100.469 97.014 100.899 95.0071Z" fill="#FF41AA"/>
<path d="M130.345 112.641C128.643 114.981 127.367 117.603 126.577 120.387C128.289 120.855 130.095 120.855 131.806 120.387C131.922 118.555 132.688 117.36 134.033 115.598C133.237 115.409 132.494 115.046 131.856 114.535C131.218 114.024 130.702 113.377 130.345 112.641Z" fill="#FFAF00"/>
<path d="M387.501 153.759C387.928 153.497 388.407 153.331 388.904 153.272C388.299 152.489 387.803 151.627 387.432 150.709C386.94 150.641 386.44 150.757 386.029 151.034C386.41 151.997 386.904 152.912 387.501 153.759Z" fill="#00D339"/>
<path d="M353.967 149.445C354.826 149.726 355.737 149.815 356.635 149.705C357.533 149.594 358.395 149.288 359.162 148.808C359.075 145.802 359.347 142.797 359.973 139.856C359.012 140.048 358.017 139.988 357.086 139.682C356.545 143.075 355.493 146.367 353.967 149.445Z" fill="#FF0E41"/>
<path d="M242.725 125.953C243.959 124.228 244.885 122.301 245.462 120.26C244.202 119.913 242.872 119.913 241.612 120.26C241.469 121.564 240.903 122.786 240 123.739C240.589 123.884 241.139 124.158 241.61 124.541C242.082 124.924 242.462 125.406 242.725 125.953Z" fill="#FF0E41"/>
<path d="M325.465 149.573C324.552 151.178 324.095 153.003 324.143 154.849C325.102 155.456 326.239 155.718 327.366 155.591C327.286 153.768 327.754 151.962 328.711 150.408C328.144 150.553 327.548 150.553 326.981 150.407C326.413 150.261 325.892 149.974 325.465 149.573Z" fill="#00D339"/>
<path d="M255.045 144.065C254.265 144.069 253.51 144.334 252.899 144.819C252.832 145.367 252.683 145.902 252.459 146.407C252.969 146.233 253.317 146.407 253.908 146.86C254.132 145.872 254.516 144.928 255.045 144.065Z" fill="#008DF0"/>
<path d="M279.903 132.693C278.407 133.087 276.749 132.855 273.467 131C272.891 132.605 272.847 134.353 273.34 135.986C275.533 136.996 277.948 137.427 280.355 137.238C279.718 135.812 279.56 134.217 279.903 132.693Z" fill="#00D339"/>
<path d="M121.591 158.444C122.043 155.591 122.449 154.142 123.968 152.217C123.56 152.085 123.184 151.871 122.863 151.588C122.542 151.304 122.282 150.958 122.101 150.57C120.416 152.454 119.291 154.771 118.854 157.261C119.643 157.895 120.589 158.303 121.591 158.444Z" fill="#008DF0"/>
<path d="M336 114.041C336.229 114.358 336.386 114.722 336.461 115.107C336.535 115.491 336.524 115.887 336.429 116.267C338.54 116.061 340.61 115.549 342.575 114.748C342.673 113.806 342.508 112.855 342.099 112C340.276 113.194 338.175 113.897 336 114.041Z" fill="#FF41AA"/>
<path d="M178.514 126.927C178.175 126.665 177.897 126.334 177.697 125.956C177.497 125.578 177.38 125.162 177.354 124.735C175.223 125.606 173.228 126.777 171.429 128.214C171.625 129.228 172.094 130.17 172.785 130.939C174.311 129.123 176.286 127.74 178.514 126.927Z" fill="#00D339"/>
<path d="M378.677 107.145C378.44 107.351 378.262 107.616 378.16 107.913C378.058 108.21 378.036 108.529 378.097 108.838C378.576 109.216 379.169 109.42 379.779 109.417C380.173 108.76 380.743 108.225 381.425 107.875C380.47 107.816 379.536 107.568 378.677 107.145Z" fill="#FF41AA"/>
<path d="M421.133 143.99C421.039 143.99 420.947 143.965 420.867 143.92C420.787 143.874 420.722 143.809 420.679 143.732C420.647 143.676 420.628 143.615 420.622 143.552C420.617 143.49 420.625 143.426 420.646 143.367C420.667 143.307 420.701 143.252 420.746 143.204C420.79 143.157 420.845 143.118 420.906 143.091C423.369 141.914 424.874 138.985 424.925 135.263C424.948 134.443 424.862 133.623 424.668 132.823C424.283 133.283 423.796 133.661 423.239 133.931C422.682 134.2 422.069 134.354 421.442 134.382C420.958 134.375 420.481 134.277 420.04 134.092C419.598 133.908 419.202 133.642 418.876 133.311C418.594 133.037 418.381 132.709 418.251 132.35C418.121 131.991 418.077 131.61 418.123 131.234C418.194 130.772 418.401 130.338 418.721 129.978C419.041 129.618 419.462 129.348 419.937 129.196C420.573 128.954 421.267 128.872 421.948 128.956C422.63 129.04 423.276 129.287 423.822 129.674C424.177 129.95 424.486 130.272 424.74 130.631C425.471 128.162 424.018 125.464 423.029 123.99C422.555 123.301 421.998 122.622 421.534 121.961C420.196 120.381 419.129 118.619 418.371 116.736C417.402 113.865 418.298 110.124 421.462 109.033C421.526 109.01 421.594 108.999 421.662 109C421.73 109.002 421.797 109.016 421.86 109.042C421.922 109.067 421.978 109.104 422.025 109.151C422.072 109.197 422.108 109.251 422.132 109.31C422.179 109.43 422.172 109.561 422.114 109.676C422.056 109.791 421.951 109.88 421.823 109.923C419.339 110.794 418.556 113.999 419.391 116.449C420.109 118.239 421.128 119.912 422.411 121.406C422.916 122.076 423.441 122.775 423.925 123.483C425.142 125.263 426.935 128.717 425.42 131.78C425.843 132.911 426.035 134.105 425.987 135.301C425.925 139.387 424.214 142.631 421.401 143.971C421.315 144.001 421.222 144.008 421.133 143.99ZM421.442 129.885C421.057 129.884 420.675 129.952 420.318 130.086C420.018 130.178 419.75 130.344 419.543 130.567C419.336 130.789 419.198 131.059 419.144 131.349C419.118 131.589 419.149 131.832 419.234 132.06C419.32 132.288 419.458 132.496 419.638 132.67C419.865 132.901 420.139 133.088 420.446 133.218C420.752 133.348 421.084 133.418 421.421 133.426C422.008 133.38 422.574 133.2 423.067 132.901C423.56 132.602 423.965 132.193 424.245 131.713C424.008 131.217 423.656 130.775 423.214 130.421C422.71 130.054 422.082 129.864 421.442 129.885Z" fill="#FFAF00"/>
</g>
</g>
<path d="M452.815 94.9984C452.273 95.0158 451.735 94.8904 451.253 94.6341C450.77 94.3778 450.36 93.9992 450.06 93.5341C450.033 93.4891 450.014 93.4389 450.005 93.3865C449.997 93.334 449.999 93.2803 450.01 93.2286C450.022 93.1768 450.044 93.128 450.074 93.0849C450.105 93.0419 450.143 93.0055 450.188 92.9779C450.232 92.9493 450.281 92.93 450.333 92.9212C450.385 92.9123 450.438 92.914 450.489 92.9261C450.54 92.9383 450.588 92.9607 450.631 92.992C450.673 93.0234 450.709 93.063 450.737 93.1088C451.143 93.6533 451.732 94.0224 452.389 94.1435C453.047 94.2646 453.724 94.1289 454.289 93.7632C454.872 93.3458 455.351 92.7924 455.686 92.1483C456.021 91.5041 456.203 90.7876 456.216 90.0575C456.234 88.5143 455.997 86.9793 455.515 85.5174C454.958 85.7275 454.372 85.8462 453.779 85.8691C452.874 85.9159 451.983 85.6254 451.271 85.0511C450.894 84.7379 450.621 84.3124 450.49 83.8333C450.359 83.3542 450.376 82.8451 450.538 82.3761C450.661 82.0807 450.851 81.8198 451.092 81.6149C451.333 81.41 451.618 81.2672 451.924 81.1981C452.344 81.0867 452.784 81.0744 453.211 81.1622C453.637 81.2501 454.038 81.4357 454.384 81.7053C455.158 82.3985 455.712 83.3127 455.977 84.3312C456.945 83.6934 457.746 82.823 458.312 81.7953C458.878 80.7675 459.192 79.6135 459.226 78.4332C459.29 74.8747 457.148 71.7171 455.34 69.6966C455.302 69.6598 455.272 69.6155 455.251 69.5663C455.23 69.517 455.219 69.4639 455.219 69.4103C455.219 69.3566 455.23 69.3035 455.251 69.2543C455.272 69.205 455.302 69.1607 455.34 69.1239C455.376 69.0848 455.419 69.0536 455.467 69.0323C455.515 69.011 455.566 69 455.619 69C455.671 69 455.723 69.011 455.771 69.0323C455.819 69.0536 455.862 69.0848 455.897 69.1239C457.809 71.2508 460.062 74.5966 459.999 78.425C459.971 79.7758 459.609 81.0972 458.947 82.2649C458.286 83.4326 457.346 84.4083 456.216 85.1002C456.233 85.1481 456.246 85.1974 456.256 85.2474C456.768 86.7955 457.015 88.4228 456.988 90.0575C456.969 90.9195 456.749 91.7642 456.348 92.5213C455.946 93.2783 455.374 93.9257 454.679 94.4094C454.122 94.7781 453.478 94.9819 452.815 94.9984ZM452.616 81.9098C452.447 81.9104 452.279 81.9324 452.115 81.9753C451.93 82.0175 451.756 82.1029 451.609 82.2249C451.461 82.3469 451.343 82.5022 451.263 82.6788C451.166 82.9876 451.164 83.3193 451.256 83.6294C451.349 83.9394 451.532 84.2129 451.78 84.413C452.345 84.8467 453.044 85.0559 453.747 85.002C454.271 84.9853 454.788 84.8775 455.276 84.683C455.054 83.7776 454.571 82.9622 453.891 82.3434C453.528 82.0701 453.09 81.9238 452.64 81.9262L452.616 81.9098Z" fill="#FF41AA"/>
<path d="M26.5901 94.993C26.5186 94.9947 26.4486 94.9728 26.3906 94.9309C26.3327 94.8889 26.2901 94.8291 26.2693 94.7606C26.2544 94.718 26.2484 94.6729 26.2514 94.6279C26.2544 94.5829 26.2665 94.5389 26.2869 94.4987C26.3073 94.4585 26.3356 94.4228 26.3701 94.3938C26.4046 94.3648 26.4446 94.3431 26.4877 94.33C27.412 94.0244 28.2271 93.4555 28.8334 92.693C29.4397 91.9305 29.8107 91.0075 29.901 90.0371C29.9249 89.7573 29.9249 89.476 29.901 89.1963C29.0254 89.4468 28.0992 89.4618 27.216 89.2398C26.3327 89.0178 25.5235 88.5666 24.8698 87.9316C24.1872 87.248 23.7229 86.1406 24.1872 85.2451C24.7674 84.1446 26.3307 84.083 27.498 84.6641C28.2082 85.0299 28.834 85.5407 29.3349 86.1635C29.8358 86.7864 30.2007 87.5075 30.4062 88.2803C30.5567 88.2123 30.7026 88.1346 30.8431 88.0478C31.6906 87.4973 32.369 86.7221 32.8029 85.8086C33.2367 84.895 33.4091 83.8789 33.3007 82.8731C33.0754 80.6515 31.7033 78.84 30.2492 76.9259C28.7951 75.0119 27.3888 73.1389 27.0748 70.7737C26.9258 69.4595 27.152 68.13 27.7271 66.9394C28.3023 65.7488 29.2028 64.7459 30.3243 64.0472C30.4014 64.0018 30.4933 63.9885 30.5801 64.0102C30.6669 64.0319 30.7418 64.087 30.7885 64.1634C30.812 64.2019 30.8277 64.2448 30.8346 64.2894C30.8415 64.334 30.8395 64.3796 30.8287 64.4235C30.8179 64.4673 30.7985 64.5086 30.7717 64.5449C30.7449 64.5813 30.7112 64.6119 30.6724 64.6351C29.6569 65.2638 28.8413 66.1695 28.3214 67.2458C27.8015 68.3221 27.5988 69.5245 27.737 70.7121C28.0237 72.8723 29.3617 74.6359 30.7816 76.5089C32.2016 78.382 33.7239 80.3917 33.9628 82.8047C34.0884 83.943 33.8943 85.0938 33.4022 86.1276C32.9102 87.1614 32.1397 88.0371 31.1776 88.6562C30.9693 88.7805 30.7526 88.8901 30.5291 88.9843C30.5699 89.3592 30.5699 89.7374 30.5291 90.1123C30.4279 91.2154 30.0079 92.2652 29.3205 93.1332C28.6331 94.0012 27.708 94.6499 26.6584 94.9999C26.6354 95.0006 26.6125 94.9983 26.5901 94.993ZM25.9621 84.9854C25.7298 84.9629 25.4958 85.0053 25.2861 85.1078C25.0765 85.2104 24.8993 85.3691 24.7742 85.5664C24.4602 86.1543 24.8288 86.9336 25.3272 87.4531C25.9067 88.0031 26.6206 88.3906 27.3972 88.5766C28.1737 88.7626 28.9855 88.7406 29.7508 88.5127C29.577 87.822 29.2582 87.1764 28.8156 86.6188C28.373 86.0613 27.8168 85.6046 27.184 85.2793C26.8031 85.0929 26.386 84.9926 25.9621 84.9854Z" fill="#00D339"/>
<path d="M115.976 31.9999C115.915 32.0015 115.855 31.9882 115.802 31.9611C115.748 31.9341 115.702 31.8942 115.668 31.8452C115.611 31.7647 115.589 31.6658 115.606 31.5696C115.623 31.4733 115.677 31.3873 115.758 31.3297C116.345 30.8782 116.806 30.2896 117.1 29.618C117.395 28.9463 117.512 28.2131 117.442 27.4855C117.383 26.7255 117.2 25.9796 116.901 25.2762C116.181 25.5374 115.41 25.638 114.645 25.5707C114.022 25.5351 113.415 25.3624 112.87 25.0653C112.325 24.7682 111.855 24.3545 111.495 23.8548C111.263 23.5528 111.106 23.2014 111.038 22.8291C110.97 22.4567 110.993 22.074 111.104 21.7118C111.197 21.4742 111.34 21.2581 111.522 21.0769C111.704 20.8957 111.923 20.7533 112.164 20.6587C112.815 20.3976 113.544 20.3976 114.194 20.6587C115.161 21.1489 115.949 21.9208 116.45 22.868C116.724 23.3218 116.975 23.7888 117.201 24.2673C117.495 24.1011 117.763 23.8953 117.998 23.656C119.502 22.0874 119.667 19.3552 118.359 17.3079C117.679 16.3418 116.801 15.5247 115.781 14.9086C114.761 14.2924 113.622 13.8907 112.435 13.7288C112.337 13.7108 112.25 13.6562 112.192 13.5764C112.135 13.4967 112.111 13.3981 112.127 13.3017C112.135 13.2539 112.153 13.2082 112.179 13.1674C112.206 13.1265 112.24 13.0913 112.281 13.0638C112.322 13.0363 112.367 13.0171 112.416 13.0074C112.464 12.9976 112.514 12.9975 112.563 13.0071C113.854 13.1842 115.094 13.6235 116.202 14.2969C117.31 14.9703 118.262 15.8629 118.998 16.9176C120.502 19.2447 120.284 22.3599 118.54 24.1642C118.239 24.4764 117.892 24.7421 117.51 24.9521C117.849 25.7492 118.055 26.5947 118.119 27.456C118.202 28.3102 118.061 29.1711 117.71 29.9572C117.358 30.7432 116.808 31.4286 116.111 31.9483C116.07 31.9745 116.024 31.992 115.976 31.9999ZM113.217 21.1595C112.959 21.1545 112.703 21.2021 112.465 21.2994C112.318 21.3586 112.185 21.4457 112.073 21.5557C111.96 21.6657 111.871 21.7963 111.811 21.9401C111.746 22.193 111.741 22.457 111.796 22.7121C111.851 22.9672 111.964 23.2069 112.127 23.413C112.424 23.8191 112.811 24.1545 113.259 24.3942C113.706 24.6339 114.203 24.7717 114.713 24.7975C115.345 24.8475 115.981 24.7647 116.577 24.5545C116.367 24.1347 116.126 23.6928 115.826 23.2289C115.398 22.4034 114.724 21.7252 113.893 21.2847C113.677 21.2033 113.448 21.1609 113.217 21.1595Z" fill="#FF0E41"/>
<defs>
<clipPath id="clip0_925_29">
<rect width="383.119" height="130.81" fill="white" transform="translate(53.6406 38)"/>
</clipPath>
</defs>
</svg>
