<svg width="41" height="56" viewBox="0 0 41 56" fill="none" xmlns="http://www.w3.org/2000/svg">
<path d="M0 0H41V52.6911C41 54.1952 39.4021 55.1611 38.0703 54.4619L21.9074 45.9764C21.3377 45.6773 20.6589 45.6706 20.0833 45.9583L2.89443 54.5528C1.56463 55.2177 0 54.2507 0 52.7639V0Z" fill="#FBBF12"/>
<path d="M31.9605 19.6924C31.8042 20.0933 31.5903 20.4419 31.1678 20.6177C31.1339 20.6321 31.1081 20.6917 31.0979 20.7339C30.6486 22.5393 30.2044 24.3447 29.7531 26.1491C29.6502 26.5521 29.4364 26.7166 29.0128 26.7177C23.6733 26.7321 18.3338 26.7451 12.9943 26.7567C12.5605 26.7567 12.3466 26.5891 12.2438 26.1738C11.8068 24.4177 11.3678 22.6616 10.9422 20.9025C10.9302 20.826 10.8994 20.7536 10.8525 20.6919C10.8057 20.6302 10.7443 20.581 10.6738 20.5488C10.4216 20.4167 10.2217 20.2028 10.1068 19.9423C9.99198 19.6817 9.96895 19.3899 10.0415 19.1145C10.1119 18.8315 10.2751 18.5803 10.5051 18.401C10.7351 18.2217 11.0186 18.1247 11.3103 18.1255C11.6021 18.1304 11.8839 18.2335 12.1099 18.4182C12.336 18.6028 12.4933 18.8583 12.5564 19.1433C12.6087 19.3737 12.5964 19.614 12.5209 19.8379C12.4455 20.0617 12.3097 20.2604 12.1287 20.4121C12.1759 20.4655 12.214 20.5149 12.2582 20.5591C12.7568 21.0608 13.2534 21.5646 13.7541 22.0643C14.8244 23.1315 16.3852 23.0431 17.3064 21.8474C18.205 20.6814 19.0809 19.4991 19.9713 18.328C20.0495 18.2252 20.0279 18.1676 19.959 18.073C19.6238 17.6124 19.5847 17.1189 19.8757 16.6285C20.1667 16.1381 20.6252 15.9489 21.1876 16.0116C21.6554 16.0641 22.0883 16.4517 22.224 16.9472C22.2848 17.1573 22.2902 17.3795 22.2398 17.5922C22.1893 17.805 22.0847 18.0011 21.9361 18.1615C21.9362 18.1765 21.9386 18.1914 21.9433 18.2057C22.8799 19.459 23.7939 20.7267 24.7614 21.9584C24.9547 22.2036 25.197 22.4058 25.4729 22.552C25.7487 22.6982 26.0521 22.7852 26.3635 22.8075C26.6749 22.8297 26.9875 22.7867 27.2814 22.6812C27.5752 22.5758 27.8438 22.4101 28.07 22.1949C28.6735 21.6284 29.2359 21.0197 29.8178 20.4244C29.7277 20.3198 29.6439 20.21 29.567 20.0954C29.433 19.8905 29.3631 19.6504 29.366 19.4056C29.3689 19.1608 29.4446 18.9224 29.5834 18.7208C29.7014 18.5226 29.8737 18.3624 30.08 18.2592C30.2863 18.156 30.5179 18.1143 30.7473 18.1388C31.2973 18.18 31.6726 18.4709 31.8782 18.985C31.9039 19.0508 31.9317 19.1156 31.9584 19.1804L31.9605 19.6924Z" fill="white"/>
<path d="M21.019 30.7697C18.4144 30.7697 15.8125 30.7697 13.2134 30.7697C13.0715 30.7754 12.9297 30.7555 12.7949 30.711C12.6919 30.6759 12.6024 30.6094 12.539 30.521C12.4756 30.4325 12.4414 30.3264 12.4412 30.2175C12.432 29.6891 12.4279 29.1596 12.4412 28.6311C12.4473 28.4793 12.5113 28.3356 12.6202 28.2297C12.729 28.1237 12.8743 28.0635 13.0262 28.0615C13.09 28.0615 13.1548 28.0615 13.2185 28.0615H28.8082C29.3778 28.0615 29.5937 28.2785 29.5937 28.8522V30.0099C29.5937 30.5527 29.3737 30.7727 28.8247 30.7727H21.019V30.7697Z" fill="white"/>
</svg>
