<svg width="45" height="32" viewBox="0 0 45 32" fill="none" xmlns="http://www.w3.org/2000/svg">
<path d="M12.489 11.0927C13.7407 11.3525 14.9353 11.8451 16.0136 12.5461C19.5063 14.8444 21.3381 19.164 20.5623 23.2834C19.7472 27.6307 16.5275 30.9655 12.3783 31.7904C6.25843 33.0082 1.1823 28.6281 0.217231 23.0391C-0.252395 20.3251 0.0942949 17.6301 0.733575 14.993C2.59364 7.30206 7.41897 2.49759 14.6883 0.123693C15.7173 -0.211297 16.6836 0.155178 17.2295 1.02792C17.7753 1.90065 17.688 2.93459 16.9836 3.77459C15.2071 5.88402 13.6827 8.15465 12.6303 10.7376C12.5848 10.8371 12.548 10.9391 12.489 11.0927ZM12.8701 4.06424C12.7877 4.0995 12.7029 4.12973 12.6242 4.16877C4.86062 7.90656 2.51003 15.804 3.11981 22.3225C3.48863 26.2668 6.91738 29.1319 10.7113 28.9505C13.5979 28.8132 15.7394 27.3587 17.0069 24.7203C18.288 22.0555 18.031 19.431 16.3836 16.9903C15.2772 15.3532 13.7122 14.3935 11.8275 13.9364C10.6105 13.6417 9.86053 12.8332 9.58515 11.5751C9.38968 10.6809 9.74866 9.90769 10.0855 9.1294C10.8502 7.3537 11.8189 5.69889 12.8701 4.06424Z" fill="#6E55FF"/>
<path d="M36.0526 10.9382C37.1676 11.4243 38.2274 11.7719 39.1789 12.3235C42.8548 14.4379 44.8919 18.8722 44.1739 23.052C43.4031 27.5416 40.1686 30.9583 35.953 31.7945C29.8675 32.9997 24.8947 28.6927 23.8263 23.2799C23.401 21.1302 23.6112 18.9805 23.9358 16.8484C24.4976 13.1622 25.8093 9.79593 28.1378 6.88176C30.8424 3.50164 34.3204 1.3305 38.3798 0.0938048C38.8254 -0.0451398 39.3034 -0.0292019 39.7392 0.139131C40.175 0.307466 40.5443 0.618747 40.7894 1.02447C41.3156 1.85566 41.2418 2.83922 40.6431 3.66914C39.5735 5.14511 38.4794 6.60597 37.4885 8.13483C36.907 9.02142 36.505 10.0377 36.0526 10.9382ZM36.4657 4.05072C36.2911 4.12754 36.178 4.1691 36.071 4.22451C31.3182 6.6236 28.3615 10.4911 27.1543 15.7565C26.6466 17.9717 26.3429 20.2235 26.6908 22.4979C26.9609 24.3469 27.8873 26.0288 29.2925 27.2218C30.6977 28.4147 32.4831 29.0349 34.3069 28.9634C39.5625 28.7544 42.9445 22.9261 40.5976 18.1002C39.5084 15.861 37.7319 14.5223 35.3666 13.9317C33.5225 13.472 32.63 11.622 33.3578 9.84631C33.7013 8.98831 34.0916 8.15078 34.5269 7.33766C35.1219 6.2395 35.7895 5.18667 36.4657 4.05072Z" fill="#6E55FF"/>
</svg>
