<svg width="152" height="26" viewBox="0 0 152 26" fill="none" xmlns="http://www.w3.org/2000/svg">
<g clip-path="url(#clip0_465_13)">
<path d="M28.9979 10.5426C28.8472 11.0075 28.5089 11.3341 28.1258 11.6458C26.203 13.2095 24.2928 14.7871 22.3712 16.3525C22.2007 16.4913 22.1524 16.6126 22.2041 16.8222C22.8039 19.2535 23.39 21.6874 23.9841 24.1197C24.1393 24.7554 23.9944 25.3048 23.4264 25.7005C22.8585 26.0963 22.2354 26.0824 21.6259 25.7415C19.3445 24.4649 17.0602 23.1884 14.7855 21.9033C14.561 21.7762 14.4143 21.797 14.2062 21.9134C11.9367 23.19 9.66264 24.4628 7.38403 25.7319C6.61483 26.1617 5.77513 26.0425 5.27768 25.4388C4.96329 25.0569 4.88824 24.6256 5.00081 24.1623C5.59244 21.7294 6.18635 19.2971 6.78254 16.8653C6.83939 16.6318 6.79846 16.4892 6.60004 16.328C4.59129 14.6941 2.5886 13.0542 0.591968 11.4086C0.0751874 10.983 -0.132889 10.4591 0.0768931 9.84054C0.28099 9.23737 0.750016 8.89536 1.42882 8.83526C3.02579 8.69378 4.62275 8.55974 6.21971 8.42357C7.32831 8.32943 8.43692 8.23422 9.54609 8.14646C9.71949 8.13263 9.8025 8.06242 9.87072 7.91243C10.9168 5.60826 11.9742 3.30836 13.0192 1.0042C13.2812 0.425498 13.7093 0.0611518 14.3887 0.00636683C15.0903 -0.0494819 15.6593 0.312206 15.9675 0.986646C16.9305 3.09401 17.9226 5.1886 18.8356 7.31617C19.0983 7.92838 19.4195 8.17305 20.133 8.22039C22.5139 8.37145 24.8875 8.61665 27.2662 8.7943C28.1474 8.86026 28.7443 9.20439 28.9956 10.0177L28.9979 10.5426Z" fill="#FBBF12"/>
</g>
<g clip-path="url(#clip1_465_13)">
<path d="M89.9978 10.5426C89.8523 11.0075 89.5257 11.3341 89.1558 11.6458C87.2993 13.2095 85.455 14.7871 83.5997 16.3525C83.435 16.4913 83.3884 16.6126 83.4383 16.8222C84.0174 19.2535 84.5833 21.6874 85.1569 24.1197C85.3068 24.7554 85.1668 25.3048 84.6185 25.7005C84.0701 26.0963 83.4685 26.0824 82.8801 25.7415C80.6773 24.4649 78.4717 23.1884 76.2755 21.9033C76.0587 21.7762 75.9171 21.797 75.7162 21.9134C73.525 23.19 71.3293 24.4628 69.1293 25.7319C68.3866 26.1617 67.5758 26.0425 67.0955 25.4388C66.792 25.0569 66.7195 24.6256 66.8282 24.1623C67.3995 21.7294 67.9729 19.2971 68.5485 16.8653C68.6034 16.6318 68.5639 16.4892 68.3723 16.328C66.4328 14.6941 64.4992 13.0542 62.5714 11.4086C62.0725 10.983 61.8716 10.4591 62.0741 9.84054C62.2712 9.23737 62.724 8.89536 63.3794 8.83526C64.9213 8.69378 66.4632 8.55974 68.0051 8.42357C69.0755 8.32943 70.1459 8.23422 71.2168 8.14646C71.3842 8.13263 71.4643 8.06242 71.5302 7.91243C72.5402 5.60826 73.5612 3.30836 74.5701 1.0042C74.8231 0.425498 75.2365 0.0611518 75.8924 0.00636683C76.5698 -0.0494819 77.1192 0.312206 77.4167 0.986646C78.3466 3.09401 79.3044 5.1886 80.186 7.31617C80.4396 7.92838 80.7497 8.17305 81.4386 8.22039C83.7375 8.37145 86.0292 8.61665 88.3258 8.7943C89.1766 8.86026 89.753 9.20439 89.9956 10.0177L89.9978 10.5426Z" fill="#FBBF12"/>
</g>
<g clip-path="url(#clip2_465_13)">
<path d="M58.9977 10.5426C58.8522 11.0075 58.5256 11.3341 58.1556 11.6458C56.2992 13.2095 54.4549 14.7871 52.5995 16.3525C52.4349 16.4913 52.3882 16.6126 52.4382 16.8222C53.0173 19.2535 53.5832 21.6874 54.1568 24.1197C54.3067 24.7554 54.1667 25.3048 53.6183 25.7005C53.07 26.0963 52.4684 26.0824 51.8799 25.7415C49.6771 24.4649 47.4716 23.1884 45.2754 21.9033C45.0586 21.7762 44.917 21.797 44.7161 21.9134C42.5248 23.19 40.3292 24.4628 38.1291 25.7319C37.3864 26.1617 36.5757 26.0425 36.0954 25.4388C35.7919 25.0569 35.7194 24.6256 35.8281 24.1623C36.3993 21.7294 36.9728 19.2971 37.5484 16.8653C37.6033 16.6318 37.5637 16.4892 37.3722 16.328C35.4327 14.6941 33.4991 13.0542 31.5713 11.4086C31.0723 10.983 30.8714 10.4591 31.074 9.84054C31.271 9.23737 31.7239 8.89536 32.3793 8.83526C33.9212 8.69378 35.4631 8.55974 37.005 8.42357C38.0753 8.32943 39.1457 8.23422 40.2166 8.14646C40.3841 8.13263 40.4642 8.06242 40.5301 7.91243C41.5401 5.60826 42.561 3.30836 43.5699 1.0042C43.823 0.425498 44.2363 0.0611518 44.8923 0.00636683C45.5696 -0.0494819 46.1191 0.312206 46.4166 0.986646C47.3465 3.09401 48.3043 5.1886 49.1859 7.31617C49.4395 7.92838 49.7496 8.17305 50.4385 8.22039C52.7373 8.37145 55.029 8.61665 57.3257 8.7943C58.1765 8.86026 58.7528 9.20439 58.9955 10.0177L58.9977 10.5426Z" fill="#FBBF12"/>
</g>
<g clip-path="url(#clip3_465_13)">
<path d="M120.998 10.5426C120.852 11.0075 120.526 11.3341 120.156 11.6458C118.299 13.2095 116.455 14.7871 114.6 16.3525C114.435 16.4913 114.388 16.6126 114.438 16.8222C115.017 19.2535 115.583 21.6874 116.157 24.1197C116.307 24.7554 116.167 25.3048 115.618 25.7005C115.07 26.0963 114.468 26.0824 113.88 25.7415C111.677 24.4649 109.472 23.1884 107.275 21.9033C107.059 21.7762 106.917 21.797 106.716 21.9134C104.525 23.19 102.329 24.4628 100.129 25.7319C99.3864 26.1617 98.5757 26.0425 98.0954 25.4388C97.7919 25.0569 97.7194 24.6256 97.8281 24.1623C98.3993 21.7294 98.9728 19.2971 99.5484 16.8653C99.6033 16.6318 99.5637 16.4892 99.3722 16.328C97.4327 14.6941 95.4991 13.0542 93.5713 11.4086C93.0723 10.983 92.8714 10.4591 93.074 9.84054C93.271 9.23737 93.7239 8.89536 94.3793 8.83526C95.9212 8.69378 97.4631 8.55974 99.005 8.42357C100.075 8.32943 101.146 8.23422 102.217 8.14646C102.384 8.13263 102.464 8.06242 102.53 7.91243C103.54 5.60826 104.561 3.30836 105.57 1.0042C105.823 0.425498 106.236 0.0611518 106.892 0.00636683C107.57 -0.0494819 108.119 0.312206 108.417 0.986646C109.346 3.09401 110.304 5.1886 111.186 7.31617C111.439 7.92838 111.75 8.17305 112.438 8.22039C114.737 8.37145 117.029 8.61665 119.326 8.7943C120.176 8.86026 120.753 9.20439 120.995 10.0177L120.998 10.5426Z" fill="#FBBF12"/>
</g>
<g clip-path="url(#clip4_465_13)">
<path d="M151.998 10.5426C151.852 11.0075 151.526 11.3341 151.156 11.6458C149.299 13.2095 147.455 14.7871 145.6 16.3525C145.435 16.4913 145.388 16.6126 145.438 16.8222C146.017 19.2535 146.583 21.6874 147.157 24.1197C147.307 24.7554 147.167 25.3048 146.618 25.7005C146.07 26.0963 145.468 26.0824 144.88 25.7415C142.677 24.4649 140.472 23.1884 138.276 21.9033C138.059 21.7762 137.917 21.797 137.716 21.9134C135.525 23.19 133.329 24.4628 131.129 25.7319C130.387 26.1617 129.576 26.0425 129.096 25.4388C128.792 25.0569 128.72 24.6256 128.828 24.1623C129.399 21.7294 129.973 19.2971 130.549 16.8653C130.603 16.6318 130.564 16.4892 130.372 16.328C128.433 14.6941 126.499 13.0542 124.571 11.4086C124.072 10.983 123.872 10.4591 124.074 9.84054C124.271 9.23737 124.724 8.89536 125.379 8.83526C126.921 8.69378 128.463 8.55974 130.005 8.42357C131.075 8.32943 132.146 8.23422 133.217 8.14646C133.384 8.13263 133.464 8.06242 133.53 7.91243C134.54 5.60826 135.561 3.30836 136.57 1.0042C136.823 0.425498 137.236 0.0611518 137.892 0.00636683C138.57 -0.0494819 139.119 0.312206 139.417 0.986646C140.347 3.09401 141.304 5.1886 142.186 7.31617C142.44 7.92838 142.75 8.17305 143.439 8.22039C145.737 8.37145 148.029 8.61665 150.326 8.7943C151.177 8.86026 151.753 9.20439 151.996 10.0177L151.998 10.5426Z" fill="#FBBF12"/>
</g>
<defs>
<clipPath id="clip0_465_13">
<rect width="29" height="26" fill="white"/>
</clipPath>
<clipPath id="clip1_465_13">
<rect width="28" height="26" fill="white" transform="translate(62)"/>
</clipPath>
<clipPath id="clip2_465_13">
<rect width="28" height="26" fill="white" transform="translate(31)"/>
</clipPath>
<clipPath id="clip3_465_13">
<rect width="28" height="26" fill="white" transform="translate(93)"/>
</clipPath>
<clipPath id="clip4_465_13">
<rect width="28" height="26" fill="white" transform="translate(124)"/>
</clipPath>
</defs>
</svg>
