<svg width="39" height="41" viewBox="0 0 39 41" fill="none" xmlns="http://www.w3.org/2000/svg">
<g clip-path="url(#clip0_465_14)">
<path d="M19.8317 -5.70714e-06C22.1364 1.08565 24.5449 1.94232 27.0217 2.55734C30.3948 3.41354 33.8634 3.84958 37.3464 3.85529C38.3822 3.85529 38.8491 4.32756 38.861 5.35457C38.911 9.54828 39.0347 13.7441 38.9913 17.9368C38.9262 24.1481 36.6308 29.5251 32.3312 34.0433C28.9218 37.6266 24.7481 39.9441 19.8697 40.9668C19.3518 41.0739 18.7416 40.9218 18.2096 40.7687C9.20267 38.1892 3.3963 32.453 0.790441 23.5601C0.210637 21.5747 0.00216675 19.5271 0.00216675 17.4559C0.00216675 13.4079 0.00216675 9.36015 0.00216675 5.3128C0.00216675 4.33078 0.496195 3.8403 1.50162 3.83708C7.65255 3.81995 13.5353 2.59161 19.127 0.0449726C19.1487 0.0353343 19.1639 0.00856201 19.1824 -0.00964355L19.8317 -5.70714e-06ZM2.60152 6.45869V6.73712C2.60152 10.3825 2.60152 14.0286 2.60152 17.6755C2.60152 19.1887 2.73724 20.6976 3.1216 22.1604C5.33224 30.5778 10.6591 36.0106 19.1737 38.357C19.3947 38.4116 19.6259 38.4116 19.8469 38.357C29.5483 36.001 36.4397 27.3126 36.4039 17.4602C36.3909 13.9208 36.3214 10.3825 36.2769 6.84314C36.2769 6.70178 36.2617 6.5615 36.253 6.42013C35.3985 6.36552 34.5885 6.32161 33.7807 6.25842C29.0664 5.89447 24.4447 4.76969 20.0999 2.92895C19.9171 2.84015 19.7163 2.79352 19.5126 2.7926C19.3088 2.79167 19.1076 2.83647 18.924 2.92359C15.0702 4.5685 10.9903 5.64038 6.81759 6.10421C5.43431 6.25414 4.04777 6.33874 2.60152 6.45869Z" fill="#61D026"/>
<path d="M19.4926 25.5263C18.6564 25.5152 17.8289 25.3598 17.0492 25.0676C16.9308 25.0333 16.8033 25.0439 16.6926 25.0972C16.2029 25.3435 15.7237 25.6093 15.2409 25.8683C15.0263 25.9826 14.8029 26.0757 14.5769 25.9106C14.3508 25.7456 14.3403 25.5246 14.3911 25.2893C14.4998 24.7815 14.6259 24.2829 14.7241 23.7759C14.7328 23.7177 14.7296 23.6584 14.7146 23.6015C14.6996 23.5445 14.673 23.491 14.6364 23.4441C12.54 21.1205 12.4348 17.6712 14.4542 15.291C15.9383 13.5422 17.9078 12.8092 20.2276 13.042C23.0828 13.3289 25.2652 15.2174 25.8504 17.9218C26.6643 21.6843 24.0623 25.0235 20.3547 25.4552C20.0708 25.4916 19.7817 25.5086 19.4926 25.5263ZM22.813 20.4307C23.136 20.4307 23.446 20.3076 23.6757 20.0881C23.9053 19.8686 24.0361 19.5704 24.0395 19.2583C24.0395 18.9455 23.9115 18.6454 23.6834 18.4234C23.4553 18.2014 23.1455 18.0755 22.8217 18.0733C22.6596 18.0716 22.4987 18.101 22.3483 18.1598C22.198 18.2186 22.0612 18.3057 21.946 18.4159C21.8307 18.5261 21.7391 18.6573 21.6767 18.8019C21.6142 18.9465 21.5821 19.1017 21.5821 19.2583C21.5832 19.4134 21.616 19.5667 21.6785 19.7095C21.741 19.8522 21.832 19.9817 21.9463 20.0905C22.0606 20.1993 22.196 20.2853 22.3447 20.3435C22.4934 20.4017 22.6525 20.4311 22.813 20.4298V20.4307ZM16.2134 20.4307C16.3738 20.4315 16.5328 20.4017 16.6813 20.343C16.8298 20.2844 16.9649 20.198 17.0788 20.0889C17.1927 19.9798 17.2832 19.8501 17.3452 19.7071C17.4072 19.5641 17.4394 19.4108 17.4399 19.2558C17.4391 19.0991 17.4062 18.9441 17.343 18.7998C17.2798 18.6555 17.1876 18.5247 17.0717 18.4151C16.9559 18.3054 16.8186 18.219 16.668 18.1609C16.5174 18.1029 16.3563 18.0742 16.1941 18.0767C15.8719 18.0811 15.5644 18.208 15.3382 18.4297C15.1119 18.6515 14.9851 18.9504 14.9851 19.2617C14.9884 19.5738 15.1194 19.8719 15.3496 20.0908C15.5798 20.3097 15.8904 20.4316 16.2134 20.4298V20.4307ZM20.7297 19.2533C20.7309 19.0987 20.7004 18.9454 20.6399 18.8023C20.5794 18.6593 20.49 18.5292 20.3771 18.4198C20.2641 18.3103 20.1298 18.2236 19.9818 18.1647C19.8339 18.1058 19.6754 18.0759 19.5154 18.0767C19.3553 18.0743 19.1964 18.1027 19.0478 18.1602C18.8992 18.2177 18.7639 18.3032 18.6498 18.4116C18.5357 18.5201 18.445 18.6494 18.3831 18.7919C18.3211 18.9345 18.2891 19.0876 18.2889 19.2423C18.286 19.3986 18.3158 19.554 18.3764 19.699C18.4371 19.844 18.5273 19.9757 18.6418 20.0863C18.7562 20.1969 18.8926 20.2841 19.0427 20.3427C19.1928 20.4013 19.3535 20.43 19.5154 20.4273C19.6752 20.4283 19.8337 20.3986 19.9815 20.34C20.1294 20.2813 20.2637 20.1949 20.3766 20.0856C20.4896 19.9764 20.579 19.8466 20.6396 19.7037C20.7002 19.5608 20.7308 19.4077 20.7297 19.2533Z" fill="#BDBDBD"/>
<path d="M21.6415 27.8508C21.6415 27.9506 21.6415 28.0351 21.6415 28.1189C21.6386 28.3506 21.5453 28.572 21.3814 28.7355C21.2176 28.8989 20.9964 28.9915 20.7653 28.9932C19.9281 29.0023 19.0909 29.0023 18.2537 28.9932C17.7528 28.9882 17.3851 28.6059 17.3707 28.0994C17.3657 27.9303 17.3657 27.7612 17.3707 27.592C17.3704 27.4752 17.3932 27.3594 17.4377 27.2514C17.4823 27.1434 17.5477 27.0453 17.6303 26.9628C17.7129 26.8804 17.8109 26.8151 17.9188 26.7708C18.0267 26.7266 18.1422 26.7042 18.2588 26.705C18.7235 26.6965 19.1865 26.7008 19.6545 26.705C21.4838 26.7117 23.0735 26.0682 24.4659 24.9114C25.4092 24.1447 26.136 23.1439 26.5743 22.0084C26.7573 21.5264 26.8062 20.9937 26.8982 20.4787C26.9825 20.0127 27.0398 19.5426 27.1115 19.0741C27.2667 18.0593 26.996 17.1046 26.6257 16.1846C25.3607 13.0347 22.2605 11.1253 18.8778 11.3798C15.2994 11.6487 12.3215 14.5086 11.8779 18.0746C11.8029 18.6809 11.9361 19.2534 12.0162 19.836C12.1621 20.8905 12.3359 21.9416 12.4894 22.9961C12.5796 23.6193 12.3915 23.9263 11.786 24.0954C11.4305 24.2061 11.0617 24.2681 10.6896 24.2797C9.8581 24.2738 9.27618 23.7817 8.86209 23.1221C7.86946 21.545 7.73452 19.8639 8.45475 18.1524C8.80896 17.3118 9.47352 16.7512 10.3877 16.5415C10.5272 16.5171 10.668 16.5007 10.8094 16.4924C10.8288 16.4451 10.8549 16.3859 10.876 16.3233C12.1411 12.7505 14.6349 10.601 18.3819 10.0843C22.7657 9.48136 26.7767 12.173 28.0966 16.2379C28.1472 16.3935 28.1809 16.5186 28.4002 16.5313C29.6247 16.6006 30.3112 17.3659 30.6722 18.4382C31.2541 20.1692 31.0821 21.8274 29.9891 23.331C29.6003 23.8662 29.0782 24.2687 28.3867 24.2848C28.0089 24.2941 27.6277 24.1673 27.2473 24.0903C27.1216 24.0641 27.0339 24.0506 26.9454 24.1749C25.6584 26.0141 23.9262 27.2191 21.7621 27.8111C21.73 27.8187 21.6988 27.8314 21.6415 27.8508Z" fill="#BDBDBD"/>
</g>
<defs>
<clipPath id="clip0_465_14">
<rect width="39" height="41" fill="white"/>
</clipPath>
</defs>
</svg>
