<svg width="22" height="17" viewBox="0 0 22 17" fill="none" xmlns="http://www.w3.org/2000/svg">
<g clip-path="url(#clip0_601_10)">
<path d="M13.8298 0H0.710328C0.617047 0 0.524679 0.0180714 0.438499 0.0531829C0.352319 0.0882944 0.274014 0.139759 0.208055 0.204636C0.142095 0.269514 0.0897729 0.346534 0.0540759 0.4313C0.0183789 0.516067 7.62939e-06 0.60692 7.62939e-06 0.698671V3.43931C7.53692e-06 3.53101 0.0183849 3.62182 0.0540942 3.70653C0.0898034 3.79124 0.142143 3.8682 0.208116 3.93299C0.274088 3.99779 0.352404 4.04916 0.438578 4.08417C0.524753 4.11917 0.617094 4.13712 0.710328 4.13699H13.8298C14.0179 4.13699 14.1983 4.06349 14.3314 3.93265C14.4644 3.80181 14.5391 3.62434 14.5391 3.43931V0.694741C14.5383 0.510214 14.4633 0.33351 14.3303 0.203305C14.1974 0.0730997 14.0174 -1.64723e-06 13.8298 0Z" fill="#845DE2"/>
<path d="M21.2897 6.42953H5.42582C5.2376 6.42953 5.05708 6.50301 4.9239 6.63382C4.79072 6.76464 4.71576 6.94209 4.7155 7.12722V9.87277C4.71576 10.0579 4.79072 10.2354 4.9239 10.3662C5.05708 10.497 5.2376 10.5705 5.42582 10.5705H21.2897C21.4778 10.5705 21.6582 10.497 21.7912 10.3661C21.9243 10.2353 21.999 10.0578 21.999 9.87277V7.12722C21.999 6.94218 21.9243 6.76472 21.7912 6.63388C21.6582 6.50304 21.4778 6.42953 21.2897 6.42953Z" fill="#6E55FF"/>
<path d="M21.2897 12.8581H17.6042C17.416 12.8584 17.2356 12.9321 17.1026 13.0631C16.9696 13.1941 16.8949 13.3716 16.8949 13.5568V16.3013C16.8947 16.393 16.913 16.4839 16.9486 16.5686C16.9842 16.6534 17.0364 16.7304 17.1023 16.7953C17.1681 16.8602 17.2464 16.9117 17.3325 16.9468C17.4186 16.9819 17.511 17 17.6042 17H21.2897C21.4781 17 21.6587 16.9264 21.7919 16.7954C21.9252 16.6643 22 16.4866 22 16.3013V13.5607C22.0005 13.4686 21.9825 13.3773 21.9471 13.2921C21.9116 13.2069 21.8594 13.1294 21.7934 13.0641C21.7274 12.9988 21.6489 12.947 21.5624 12.9116C21.476 12.8763 21.3833 12.8581 21.2897 12.8581Z" fill="#6E55FF"/>
<path d="M13.8298 12.8581H10.1443C10.0507 12.8582 9.9581 12.8765 9.87172 12.9119C9.78534 12.9473 9.70691 12.9991 9.64092 13.0644C9.57494 13.1297 9.5227 13.2071 9.48719 13.2923C9.45168 13.3774 9.4336 13.4686 9.434 13.5607V16.3053C9.43505 16.4894 9.50994 16.6656 9.64239 16.7957C9.77484 16.9258 9.95414 16.9992 10.1413 17H13.8298C13.923 17 14.0154 16.9819 14.1015 16.9468C14.1876 16.9117 14.2658 16.8602 14.3317 16.7953C14.3976 16.7304 14.4498 16.6534 14.4854 16.5686C14.521 16.4839 14.5393 16.393 14.5391 16.3013V13.5607C14.5396 13.4687 14.5217 13.3775 14.4863 13.2923C14.4509 13.2072 14.3988 13.1297 14.3328 13.0645C14.2669 12.9992 14.1886 12.9473 14.1022 12.9119C14.0159 12.8765 13.9233 12.8582 13.8298 12.8581Z" fill="#6E55FF"/>
<path d="M21.2897 0H17.6042C17.511 -9.0871e-08 17.4186 0.0180788 17.3325 0.0532024C17.2464 0.0883259 17.1681 0.139804 17.1023 0.204695C17.0364 0.269585 16.9842 0.346614 16.9486 0.431375C16.913 0.516136 16.8947 0.606966 16.8949 0.698671V3.43931C16.8949 3.62434 16.9696 3.80181 17.1026 3.93265C17.2356 4.06349 17.4161 4.13699 17.6042 4.13699H21.2897C21.3829 4.13712 21.4753 4.11917 21.5614 4.08417C21.6476 4.04916 21.7259 3.99779 21.7919 3.93299C21.8579 3.8682 21.9102 3.79124 21.9459 3.70653C21.9816 3.62182 22 3.53101 22 3.43931V0.694741C21.9989 0.510124 21.9236 0.333422 21.7905 0.203245C21.6574 0.0730675 21.4774 -2.92159e-06 21.2897 0Z" fill="#6E55FF"/>
</g>
<defs>
<clipPath id="clip0_601_10">
<rect width="22" height="17" fill="white"/>
</clipPath>
</defs>
</svg>
